<?xml version="1.0" encoding="utf-8"?>
<!-- Generator: Adobe Illustrator 23.0.2, SVG Export Plug-In . SVG Version: 6.00 Build 0)  -->
<svg version="1.1" id="Layer_1" xmlns="http://www.w3.org/2000/svg" xmlns:xlink="http://www.w3.org/1999/xlink" x="0px" y="0px"
	 viewBox="0 0 401.5 130" style="enable-background:new 0 0 401.5 130;" xml:space="preserve">
<style type="text/css">
	.st0{fill:#3A3A3C;}
	.st1{enable-background:new    ;}
	.st2{fill:#ADB5BD;}
	.st3{fill:#B59F3B;}
	.st4{fill:#538D4E;}
	.st5{fill:none;stroke:#F2F2F2;stroke-width:2;stroke-miterlimit:10;}
	.st6{fill:none;}
</style>
<title>global_key</title>
<rect class="st0" width="60" height="130"/>
<g class="st1">
	<path class="st2" d="M76,21.4c0.3,0,0.6,0,0.9,0s0.5-0.1,0.7-0.1s0.4-0.1,0.6-0.2c0.2-0.1,0.4-0.2,0.6-0.3v-2.5h-1.8
		c-0.1,0-0.2,0-0.2-0.1c-0.1-0.1-0.1-0.1-0.1-0.2V17h3.5v4.4c-0.3,0.2-0.6,0.4-0.9,0.5c-0.3,0.2-0.6,0.3-1,0.4
		c-0.4,0.1-0.7,0.2-1.1,0.2s-0.8,0.1-1.3,0.1c-0.8,0-1.6-0.1-2.3-0.4s-1.3-0.7-1.8-1.2s-0.9-1.1-1.2-1.9c-0.3-0.7-0.4-1.5-0.4-2.4
		c0-0.9,0.1-1.7,0.4-2.4c0.3-0.7,0.7-1.3,1.2-1.9s1.1-0.9,1.8-1.2c0.7-0.3,1.5-0.4,2.4-0.4c0.5,0,0.9,0,1.3,0.1
		c0.4,0.1,0.8,0.2,1.1,0.3c0.3,0.1,0.6,0.3,0.9,0.5s0.5,0.4,0.8,0.6l-0.4,0.7c-0.1,0.1-0.2,0.2-0.4,0.2c-0.1,0-0.2,0-0.3-0.1
		c-0.1-0.1-0.3-0.2-0.4-0.3s-0.4-0.2-0.6-0.3s-0.5-0.2-0.8-0.3s-0.7-0.1-1.1-0.1c-0.6,0-1.2,0.1-1.8,0.3c-0.5,0.2-1,0.5-1.3,0.9
		c-0.4,0.4-0.7,0.9-0.8,1.4c-0.2,0.6-0.3,1.2-0.3,1.9c0,0.7,0.1,1.4,0.3,1.9c0.2,0.6,0.5,1,0.9,1.4c0.4,0.4,0.8,0.7,1.3,0.9
		C74.9,21.3,75.4,21.4,76,21.4z"/>
	<path class="st2" d="M84,10.8v11.8h-1.4V10.8H84z"/>
	<path class="st2" d="M89.8,14.3c0.6,0,1.1,0.1,1.6,0.3c0.5,0.2,0.9,0.5,1.2,0.8c0.3,0.4,0.6,0.8,0.8,1.3s0.3,1.1,0.3,1.7
		c0,0.6-0.1,1.2-0.3,1.7s-0.4,0.9-0.8,1.3c-0.3,0.4-0.7,0.6-1.2,0.8c-0.5,0.2-1,0.3-1.6,0.3c-0.6,0-1.1-0.1-1.6-0.3
		c-0.5-0.2-0.9-0.5-1.2-0.8c-0.3-0.4-0.6-0.8-0.8-1.3C86,19.7,86,19.1,86,18.5c0-0.6,0.1-1.2,0.3-1.7c0.2-0.5,0.4-1,0.8-1.3
		c0.3-0.4,0.7-0.6,1.2-0.8C88.7,14.4,89.2,14.3,89.8,14.3z M89.8,21.6c0.8,0,1.4-0.3,1.8-0.8c0.4-0.5,0.6-1.3,0.6-2.2
		c0-1-0.2-1.7-0.6-2.3c-0.4-0.5-1-0.8-1.8-0.8c-0.4,0-0.8,0.1-1.1,0.2c-0.3,0.1-0.5,0.3-0.7,0.6c-0.2,0.3-0.3,0.6-0.4,1
		c-0.1,0.4-0.1,0.8-0.1,1.3c0,0.5,0,0.9,0.1,1.3s0.2,0.7,0.4,1s0.4,0.5,0.7,0.6C89.1,21.5,89.4,21.6,89.8,21.6z"/>
	<path class="st2" d="M95.5,22.6V10.8h1.4v4.8c0.3-0.4,0.7-0.7,1.2-0.9c0.4-0.2,0.9-0.4,1.5-0.4c0.5,0,0.9,0.1,1.3,0.3
		c0.4,0.2,0.7,0.4,1,0.8c0.3,0.3,0.5,0.8,0.6,1.3s0.2,1.1,0.2,1.8c0,0.6-0.1,1.2-0.2,1.7s-0.4,1-0.7,1.3s-0.7,0.7-1.1,0.9
		s-0.9,0.3-1.5,0.3c-0.5,0-1-0.1-1.3-0.3c-0.4-0.2-0.7-0.5-1-0.8l-0.1,0.7c0,0.2-0.2,0.3-0.4,0.3H95.5z M99.1,15.5
		c-0.5,0-0.9,0.1-1.2,0.3c-0.3,0.2-0.7,0.5-1,0.9v3.9c0.3,0.4,0.5,0.6,0.9,0.7s0.7,0.2,1,0.2c0.8,0,1.3-0.3,1.7-0.8
		c0.4-0.5,0.6-1.3,0.6-2.3c0-0.5,0-1-0.1-1.4s-0.2-0.7-0.4-0.9c-0.2-0.2-0.4-0.4-0.6-0.5C99.7,15.5,99.4,15.5,99.1,15.5z"/>
	<path class="st2" d="M110.3,22.6h-0.6c-0.1,0-0.3,0-0.3-0.1c-0.1,0-0.1-0.1-0.2-0.3l-0.2-0.8c-0.2,0.2-0.4,0.4-0.6,0.5
		c-0.2,0.2-0.4,0.3-0.6,0.4c-0.2,0.1-0.5,0.2-0.7,0.2c-0.3,0.1-0.5,0.1-0.8,0.1c-0.3,0-0.6,0-0.9-0.1c-0.3-0.1-0.5-0.2-0.7-0.4
		c-0.2-0.2-0.4-0.4-0.5-0.7s-0.2-0.6-0.2-1c0-0.3,0.1-0.6,0.3-0.9c0.2-0.3,0.5-0.6,0.9-0.8c0.4-0.2,0.9-0.4,1.5-0.6
		c0.6-0.1,1.4-0.2,2.3-0.2v-0.6c0-0.6-0.1-1.1-0.4-1.4c-0.3-0.3-0.7-0.5-1.2-0.5c-0.3,0-0.6,0-0.9,0.1s-0.4,0.2-0.6,0.3
		s-0.3,0.2-0.4,0.3c-0.1,0.1-0.2,0.1-0.4,0.1c-0.1,0-0.2,0-0.3-0.1c-0.1,0-0.1-0.1-0.2-0.2l-0.3-0.5c0.4-0.4,0.9-0.8,1.4-1
		c0.5-0.2,1.1-0.3,1.7-0.3c0.5,0,0.9,0.1,1.2,0.2c0.4,0.1,0.6,0.4,0.9,0.6c0.2,0.3,0.4,0.6,0.5,1c0.1,0.4,0.2,0.8,0.2,1.2V22.6z
		 M106.6,21.7c0.3,0,0.5,0,0.7-0.1s0.4-0.1,0.6-0.2c0.2-0.1,0.4-0.2,0.5-0.3c0.2-0.1,0.3-0.3,0.5-0.5v-1.7c-0.7,0-1.2,0-1.7,0.1
		c-0.5,0.1-0.8,0.2-1.1,0.3c-0.3,0.1-0.5,0.3-0.6,0.5c-0.1,0.2-0.2,0.4-0.2,0.6c0,0.2,0,0.4,0.1,0.6c0.1,0.2,0.2,0.3,0.3,0.4
		c0.1,0.1,0.3,0.2,0.4,0.2C106.3,21.7,106.5,21.7,106.6,21.7z"/>
	<path class="st2" d="M114.1,10.8v11.8h-1.4V10.8H114.1z"/>
	<path class="st2" d="M118.6,14.5h1.1c0.1,0,0.2,0,0.3,0.1s0.1,0.1,0.2,0.2l1.6,5.2c0,0.2,0.1,0.4,0.1,0.6c0,0.2,0.1,0.4,0.1,0.5
		c0-0.2,0.1-0.4,0.1-0.5s0.1-0.4,0.2-0.6l1.7-5.2c0-0.1,0.1-0.1,0.1-0.2c0.1-0.1,0.2-0.1,0.3-0.1h0.6c0.1,0,0.2,0,0.3,0.1
		c0.1,0.1,0.1,0.1,0.1,0.2l1.7,5.2c0.1,0.2,0.1,0.4,0.2,0.6s0.1,0.4,0.1,0.5c0-0.2,0.1-0.4,0.1-0.6c0-0.2,0.1-0.4,0.1-0.5l1.6-5.2
		c0-0.1,0.1-0.2,0.2-0.2c0.1-0.1,0.2-0.1,0.3-0.1h1.1l-2.6,8.1h-1.1c-0.1,0-0.2-0.1-0.3-0.3l-1.8-5.5c0-0.1-0.1-0.2-0.1-0.4
		c0-0.1-0.1-0.3-0.1-0.4c0,0.1-0.1,0.2-0.1,0.4c0,0.1-0.1,0.3-0.1,0.4l-1.8,5.5c-0.1,0.2-0.2,0.3-0.3,0.3h-1.1L118.6,14.5z"/>
	<path class="st2" d="M131.9,22.6v-8.1h0.8c0.2,0,0.3,0,0.3,0.1c0.1,0.1,0.1,0.2,0.1,0.3l0.1,1.3c0.3-0.6,0.6-1,1-1.3
		c0.4-0.3,0.9-0.5,1.4-0.5c0.2,0,0.4,0,0.6,0.1c0.2,0.1,0.3,0.1,0.5,0.2l-0.2,1.1c0,0.1-0.1,0.2-0.2,0.2c-0.1,0-0.2,0-0.3-0.1
		c-0.2,0-0.4-0.1-0.6-0.1c-0.5,0-0.9,0.1-1.2,0.4c-0.3,0.3-0.6,0.7-0.8,1.3v5.2H131.9z"/>
	<path class="st2" d="M141.7,14.3c0.6,0,1.1,0.1,1.6,0.3c0.5,0.2,0.9,0.5,1.2,0.8c0.3,0.4,0.6,0.8,0.8,1.3s0.3,1.1,0.3,1.7
		c0,0.6-0.1,1.2-0.3,1.7s-0.4,0.9-0.8,1.3c-0.3,0.4-0.7,0.6-1.2,0.8c-0.5,0.2-1,0.3-1.6,0.3c-0.6,0-1.1-0.1-1.6-0.3
		c-0.5-0.2-0.9-0.5-1.2-0.8c-0.3-0.4-0.6-0.8-0.8-1.3c-0.2-0.5-0.3-1.1-0.3-1.7c0-0.6,0.1-1.2,0.3-1.7c0.2-0.5,0.4-1,0.8-1.3
		c0.3-0.4,0.7-0.6,1.2-0.8C140.5,14.4,141.1,14.3,141.7,14.3z M141.7,21.6c0.8,0,1.4-0.3,1.8-0.8c0.4-0.5,0.6-1.3,0.6-2.2
		c0-1-0.2-1.7-0.6-2.3c-0.4-0.5-1-0.8-1.8-0.8c-0.4,0-0.8,0.1-1.1,0.2c-0.3,0.1-0.5,0.3-0.7,0.6c-0.2,0.3-0.3,0.6-0.4,1
		c-0.1,0.4-0.1,0.8-0.1,1.3c0,0.5,0,0.9,0.1,1.3s0.2,0.7,0.4,1s0.4,0.5,0.7,0.6C140.9,21.5,141.3,21.6,141.7,21.6z"/>
	<path class="st2" d="M147.3,22.6v-8.1h0.8c0.2,0,0.3,0.1,0.4,0.3l0.1,0.9c0.4-0.4,0.7-0.7,1.2-0.9s0.9-0.4,1.5-0.4
		c0.4,0,0.8,0.1,1.2,0.2c0.3,0.1,0.6,0.4,0.8,0.6c0.2,0.3,0.4,0.6,0.5,1s0.2,0.8,0.2,1.3v5.2h-1.4v-5.2c0-0.6-0.1-1.1-0.4-1.4
		c-0.3-0.3-0.7-0.5-1.3-0.5c-0.4,0-0.8,0.1-1.2,0.3c-0.4,0.2-0.7,0.5-1,0.8v6H147.3z"/>
	<path class="st2" d="M158.9,14.3c0.4,0,0.7,0,1,0.1s0.6,0.2,0.8,0.3h2.2v0.5c0,0.2-0.1,0.3-0.3,0.3l-0.9,0.1
		c0.2,0.3,0.3,0.7,0.3,1.2c0,0.4-0.1,0.8-0.2,1.1c-0.2,0.3-0.4,0.6-0.6,0.8c-0.3,0.2-0.6,0.4-1,0.5c-0.4,0.1-0.8,0.2-1.2,0.2
		c-0.4,0-0.7,0-1.1-0.1c-0.2,0.1-0.3,0.2-0.4,0.4c-0.1,0.1-0.1,0.3-0.1,0.4c0,0.2,0.1,0.3,0.2,0.5c0.2,0.1,0.4,0.2,0.6,0.2
		c0.3,0,0.5,0.1,0.9,0.1s0.7,0,1,0c0.3,0,0.7,0,1,0.1c0.3,0.1,0.6,0.2,0.9,0.3c0.3,0.1,0.5,0.3,0.6,0.6c0.2,0.2,0.2,0.5,0.2,0.9
		c0,0.4-0.1,0.7-0.3,1c-0.2,0.3-0.4,0.6-0.7,0.9c-0.3,0.3-0.7,0.5-1.2,0.6c-0.5,0.2-1,0.2-1.6,0.2c-0.6,0-1.1-0.1-1.6-0.2
		c-0.4-0.1-0.8-0.3-1.1-0.5c-0.3-0.2-0.5-0.4-0.7-0.7c-0.1-0.3-0.2-0.5-0.2-0.8c0-0.4,0.1-0.7,0.4-1c0.3-0.3,0.6-0.5,1-0.7
		c-0.2-0.1-0.4-0.2-0.5-0.4c-0.1-0.2-0.2-0.4-0.2-0.7c0-0.1,0-0.2,0.1-0.4c0-0.1,0.1-0.2,0.2-0.4s0.2-0.2,0.3-0.4
		c0.1-0.1,0.3-0.2,0.4-0.3c-0.4-0.2-0.7-0.5-0.9-0.9c-0.2-0.4-0.3-0.8-0.3-1.3c0-0.4,0.1-0.8,0.2-1.1c0.2-0.3,0.4-0.6,0.6-0.8
		s0.6-0.4,1-0.5C158,14.4,158.5,14.3,158.9,14.3z M161.4,23c0-0.2-0.1-0.4-0.2-0.5c-0.1-0.1-0.3-0.2-0.5-0.3
		c-0.2-0.1-0.4-0.1-0.7-0.2c-0.3,0-0.5,0-0.8,0c-0.3,0-0.6,0-0.8,0s-0.6,0-0.8-0.1c-0.3,0.1-0.6,0.3-0.7,0.5
		c-0.2,0.2-0.3,0.5-0.3,0.7c0,0.2,0,0.4,0.1,0.5s0.2,0.3,0.4,0.4c0.2,0.1,0.4,0.2,0.7,0.3c0.3,0.1,0.6,0.1,1,0.1c0.4,0,0.7,0,1-0.1
		c0.3-0.1,0.6-0.2,0.8-0.3c0.2-0.1,0.4-0.3,0.5-0.5C161.4,23.4,161.4,23.2,161.4,23z M158.9,18.6c0.3,0,0.5,0,0.8-0.1
		c0.2-0.1,0.4-0.2,0.6-0.3s0.3-0.3,0.3-0.5c0.1-0.2,0.1-0.4,0.1-0.7c0-0.5-0.2-0.9-0.5-1.2c-0.3-0.3-0.7-0.4-1.3-0.4
		c-0.6,0-1,0.1-1.3,0.4c-0.3,0.3-0.5,0.7-0.5,1.2c0,0.2,0,0.5,0.1,0.7c0.1,0.2,0.2,0.4,0.3,0.5s0.3,0.3,0.6,0.3
		S158.6,18.6,158.9,18.6z"/>
	<path class="st2" d="M169,10.8v11.8h-1.4V10.8H169z"/>
	<path class="st2" d="M174.7,14.3c0.5,0,0.9,0.1,1.3,0.2c0.4,0.2,0.8,0.4,1.1,0.7s0.5,0.7,0.7,1.1c0.2,0.5,0.3,1,0.3,1.5
		c0,0.2,0,0.4-0.1,0.4c0,0.1-0.1,0.1-0.3,0.1h-5.4c0,0.5,0.1,1,0.2,1.3s0.3,0.7,0.5,0.9c0.2,0.3,0.5,0.4,0.8,0.6
		c0.3,0.1,0.7,0.2,1,0.2c0.4,0,0.7,0,0.9-0.1s0.5-0.2,0.7-0.3c0.2-0.1,0.3-0.2,0.5-0.3c0.1-0.1,0.2-0.1,0.3-0.1c0.1,0,0.2,0,0.3,0.1
		l0.4,0.5c-0.2,0.2-0.4,0.4-0.6,0.6s-0.5,0.3-0.8,0.4c-0.3,0.1-0.6,0.2-0.9,0.2s-0.6,0.1-0.9,0.1c-0.6,0-1.1-0.1-1.5-0.3
		c-0.5-0.2-0.9-0.5-1.2-0.8c-0.3-0.4-0.6-0.8-0.8-1.4c-0.2-0.5-0.3-1.2-0.3-1.9c0-0.6,0.1-1.1,0.3-1.6c0.2-0.5,0.4-0.9,0.7-1.3
		c0.3-0.4,0.7-0.6,1.2-0.8S174.2,14.3,174.7,14.3z M174.8,15.4c-0.7,0-1.2,0.2-1.6,0.6s-0.6,0.9-0.7,1.7h4.4c0-0.3,0-0.6-0.1-0.9
		c-0.1-0.3-0.2-0.5-0.4-0.7c-0.2-0.2-0.4-0.4-0.6-0.5C175.4,15.4,175.1,15.4,174.8,15.4z"/>
	<path class="st2" d="M182.4,22.7c-0.6,0-1.1-0.2-1.5-0.5c-0.3-0.4-0.5-0.9-0.5-1.5v-5h-1c-0.1,0-0.2,0-0.2-0.1
		c-0.1-0.1-0.1-0.1-0.1-0.2v-0.6l1.3-0.2l0.3-2.5c0-0.1,0-0.1,0.1-0.2s0.1-0.1,0.2-0.1h0.7v2.8h2.3v1h-2.3v4.9
		c0,0.3,0.1,0.6,0.2,0.8c0.2,0.2,0.4,0.2,0.6,0.2c0.1,0,0.3,0,0.4-0.1s0.2-0.1,0.3-0.1c0.1,0,0.1-0.1,0.2-0.1c0.1,0,0.1-0.1,0.1-0.1
		c0.1,0,0.1,0,0.2,0.1l0.4,0.7c-0.2,0.2-0.5,0.4-0.9,0.5C183.1,22.6,182.7,22.7,182.4,22.7z"/>
	<path class="st2" d="M188.3,22.7c-0.6,0-1.1-0.2-1.5-0.5c-0.3-0.4-0.5-0.9-0.5-1.5v-5h-1c-0.1,0-0.2,0-0.2-0.1
		c-0.1-0.1-0.1-0.1-0.1-0.2v-0.6l1.3-0.2l0.3-2.5c0-0.1,0-0.1,0.1-0.2s0.1-0.1,0.2-0.1h0.7v2.8h2.3v1h-2.3v4.9
		c0,0.3,0.1,0.6,0.2,0.8c0.2,0.2,0.4,0.2,0.6,0.2c0.1,0,0.3,0,0.4-0.1s0.2-0.1,0.3-0.1c0.1,0,0.1-0.1,0.2-0.1c0.1,0,0.1-0.1,0.1-0.1
		c0.1,0,0.1,0,0.2,0.1l0.4,0.7c-0.2,0.2-0.5,0.4-0.9,0.5C189.1,22.6,188.7,22.7,188.3,22.7z"/>
	<path class="st2" d="M195.1,14.3c0.5,0,0.9,0.1,1.3,0.2c0.4,0.2,0.8,0.4,1.1,0.7s0.5,0.7,0.7,1.1c0.2,0.5,0.3,1,0.3,1.5
		c0,0.2,0,0.4-0.1,0.4c0,0.1-0.1,0.1-0.3,0.1h-5.4c0,0.5,0.1,1,0.2,1.3s0.3,0.7,0.5,0.9c0.2,0.3,0.5,0.4,0.8,0.6
		c0.3,0.1,0.7,0.2,1,0.2c0.4,0,0.7,0,0.9-0.1s0.5-0.2,0.7-0.3c0.2-0.1,0.3-0.2,0.5-0.3c0.1-0.1,0.2-0.1,0.3-0.1c0.1,0,0.2,0,0.3,0.1
		l0.4,0.5c-0.2,0.2-0.4,0.4-0.6,0.6s-0.5,0.3-0.8,0.4c-0.3,0.1-0.6,0.2-0.9,0.2s-0.6,0.1-0.9,0.1c-0.6,0-1.1-0.1-1.5-0.3
		c-0.5-0.2-0.9-0.5-1.2-0.8c-0.3-0.4-0.6-0.8-0.8-1.4c-0.2-0.5-0.3-1.2-0.3-1.9c0-0.6,0.1-1.1,0.3-1.6c0.2-0.5,0.4-0.9,0.7-1.3
		c0.3-0.4,0.7-0.6,1.2-0.8S194.5,14.3,195.1,14.3z M195.1,15.4c-0.7,0-1.2,0.2-1.6,0.6s-0.6,0.9-0.7,1.7h4.4c0-0.3,0-0.6-0.1-0.9
		c-0.1-0.3-0.2-0.5-0.4-0.7c-0.2-0.2-0.4-0.4-0.6-0.5C195.7,15.4,195.4,15.4,195.1,15.4z"/>
	<path class="st2" d="M200.2,22.6v-8.1h0.8c0.2,0,0.3,0,0.3,0.1s0.1,0.2,0.1,0.3l0.1,1.3c0.3-0.6,0.6-1,1-1.3
		c0.4-0.3,0.9-0.5,1.4-0.5c0.2,0,0.4,0,0.6,0.1s0.3,0.1,0.5,0.2l-0.2,1.1c0,0.1-0.1,0.2-0.2,0.2c-0.1,0-0.2,0-0.3-0.1
		c-0.2,0-0.4-0.1-0.6-0.1c-0.5,0-0.9,0.1-1.2,0.4c-0.3,0.3-0.6,0.7-0.8,1.3v5.2H200.2z"/>
</g>
<rect y="47" class="st3" width="60" height="20"/>
<rect y="67" class="st4" width="60" height="63"/>
<g class="st1">
	<path class="st2" d="M76,69.4c0.3,0,0.6,0,0.9,0s0.5-0.1,0.7-0.1s0.4-0.1,0.6-0.2c0.2-0.1,0.4-0.2,0.6-0.3v-2.5h-1.8
		c-0.1,0-0.2,0-0.2-0.1c-0.1-0.1-0.1-0.1-0.1-0.2V65h3.5v4.4c-0.3,0.2-0.6,0.4-0.9,0.5c-0.3,0.2-0.6,0.3-1,0.4
		c-0.4,0.1-0.7,0.2-1.1,0.2s-0.8,0.1-1.3,0.1c-0.8,0-1.6-0.1-2.3-0.4s-1.3-0.7-1.8-1.2s-0.9-1.1-1.2-1.9c-0.3-0.7-0.4-1.5-0.4-2.4
		c0-0.9,0.1-1.7,0.4-2.4c0.3-0.7,0.7-1.3,1.2-1.9s1.1-0.9,1.8-1.2c0.7-0.3,1.5-0.4,2.4-0.4c0.5,0,0.9,0,1.3,0.1
		c0.4,0.1,0.8,0.2,1.1,0.3c0.3,0.1,0.6,0.3,0.9,0.5s0.5,0.4,0.8,0.6l-0.4,0.7c-0.1,0.1-0.2,0.2-0.4,0.2c-0.1,0-0.2,0-0.3-0.1
		c-0.1-0.1-0.3-0.2-0.4-0.3s-0.4-0.2-0.6-0.3s-0.5-0.2-0.8-0.3s-0.7-0.1-1.1-0.1c-0.6,0-1.2,0.1-1.8,0.3c-0.5,0.2-1,0.5-1.3,0.9
		c-0.4,0.4-0.7,0.9-0.8,1.4c-0.2,0.6-0.3,1.2-0.3,1.9c0,0.7,0.1,1.4,0.3,1.9c0.2,0.6,0.5,1,0.9,1.4c0.4,0.4,0.8,0.7,1.3,0.9
		C74.9,69.3,75.4,69.4,76,69.4z"/>
	<path class="st2" d="M84,58.8v11.8h-1.4V58.8H84z"/>
	<path class="st2" d="M89.8,62.3c0.6,0,1.1,0.1,1.6,0.3c0.5,0.2,0.9,0.5,1.2,0.8c0.3,0.4,0.6,0.8,0.8,1.3s0.3,1.1,0.3,1.7
		c0,0.6-0.1,1.2-0.3,1.7s-0.4,0.9-0.8,1.3c-0.3,0.4-0.7,0.6-1.2,0.8c-0.5,0.2-1,0.3-1.6,0.3c-0.6,0-1.1-0.1-1.6-0.3
		c-0.5-0.2-0.9-0.5-1.2-0.8c-0.3-0.4-0.6-0.8-0.8-1.3C86,67.7,86,67.1,86,66.5c0-0.6,0.1-1.2,0.3-1.7c0.2-0.5,0.4-1,0.8-1.3
		c0.3-0.4,0.7-0.6,1.2-0.8C88.7,62.4,89.2,62.3,89.8,62.3z M89.8,69.6c0.8,0,1.4-0.3,1.8-0.8c0.4-0.5,0.6-1.3,0.6-2.2
		c0-1-0.2-1.7-0.6-2.3c-0.4-0.5-1-0.8-1.8-0.8c-0.4,0-0.8,0.1-1.1,0.2c-0.3,0.1-0.5,0.3-0.7,0.6c-0.2,0.3-0.3,0.6-0.4,1
		c-0.1,0.4-0.1,0.8-0.1,1.3c0,0.5,0,0.9,0.1,1.3s0.2,0.7,0.4,1s0.4,0.5,0.7,0.6C89.1,69.5,89.4,69.6,89.8,69.6z"/>
	<path class="st2" d="M95.5,70.6V58.8h1.4v4.8c0.3-0.4,0.7-0.7,1.2-0.9c0.4-0.2,0.9-0.4,1.5-0.4c0.5,0,0.9,0.1,1.3,0.3
		c0.4,0.2,0.7,0.4,1,0.8c0.3,0.3,0.5,0.8,0.6,1.3s0.2,1.1,0.2,1.8c0,0.6-0.1,1.2-0.2,1.7s-0.4,1-0.7,1.3s-0.7,0.7-1.1,0.9
		s-0.9,0.3-1.5,0.3c-0.5,0-1-0.1-1.3-0.3c-0.4-0.2-0.7-0.5-1-0.8l-0.1,0.7c0,0.2-0.2,0.3-0.4,0.3H95.5z M99.1,63.5
		c-0.5,0-0.9,0.1-1.2,0.3c-0.3,0.2-0.7,0.5-1,0.9v3.9c0.3,0.4,0.5,0.6,0.9,0.7s0.7,0.2,1,0.2c0.8,0,1.3-0.3,1.7-0.8
		c0.4-0.5,0.6-1.3,0.6-2.3c0-0.5,0-1-0.1-1.4s-0.2-0.7-0.4-0.9c-0.2-0.2-0.4-0.4-0.6-0.5C99.7,63.5,99.4,63.5,99.1,63.5z"/>
	<path class="st2" d="M110.3,70.6h-0.6c-0.1,0-0.3,0-0.3-0.1c-0.1,0-0.1-0.1-0.2-0.3l-0.2-0.8c-0.2,0.2-0.4,0.4-0.6,0.5
		c-0.2,0.2-0.4,0.3-0.6,0.4c-0.2,0.1-0.5,0.2-0.7,0.2c-0.3,0.1-0.5,0.1-0.8,0.1c-0.3,0-0.6,0-0.9-0.1c-0.3-0.1-0.5-0.2-0.7-0.4
		c-0.2-0.2-0.4-0.4-0.5-0.7s-0.2-0.6-0.2-1c0-0.3,0.1-0.6,0.3-0.9c0.2-0.3,0.5-0.6,0.9-0.8c0.4-0.2,0.9-0.4,1.5-0.6
		c0.6-0.1,1.4-0.2,2.3-0.2v-0.6c0-0.6-0.1-1.1-0.4-1.4c-0.3-0.3-0.7-0.5-1.2-0.5c-0.3,0-0.6,0-0.9,0.1s-0.4,0.2-0.6,0.3
		s-0.3,0.2-0.4,0.3c-0.1,0.1-0.2,0.1-0.4,0.1c-0.1,0-0.2,0-0.3-0.1c-0.1,0-0.1-0.1-0.2-0.2l-0.3-0.5c0.4-0.4,0.9-0.8,1.4-1
		c0.5-0.2,1.1-0.3,1.7-0.3c0.5,0,0.9,0.1,1.2,0.2c0.4,0.1,0.6,0.4,0.9,0.6c0.2,0.3,0.4,0.6,0.5,1c0.1,0.4,0.2,0.8,0.2,1.2V70.6z
		 M106.6,69.7c0.3,0,0.5,0,0.7-0.1s0.4-0.1,0.6-0.2c0.2-0.1,0.4-0.2,0.5-0.3c0.2-0.1,0.3-0.3,0.5-0.5v-1.7c-0.7,0-1.2,0-1.7,0.1
		c-0.5,0.1-0.8,0.2-1.1,0.3c-0.3,0.1-0.5,0.3-0.6,0.5c-0.1,0.2-0.2,0.4-0.2,0.6c0,0.2,0,0.4,0.1,0.6c0.1,0.2,0.2,0.3,0.3,0.4
		c0.1,0.1,0.3,0.2,0.4,0.2C106.3,69.7,106.5,69.7,106.6,69.7z"/>
	<path class="st2" d="M114.1,58.8v11.8h-1.4V58.8H114.1z"/>
	<path class="st2" d="M118.6,62.5h1.1c0.1,0,0.2,0,0.3,0.1s0.1,0.1,0.2,0.2l1.6,5.2c0,0.2,0.1,0.4,0.1,0.6c0,0.2,0.1,0.4,0.1,0.5
		c0-0.2,0.1-0.4,0.1-0.5s0.1-0.4,0.2-0.6l1.7-5.2c0-0.1,0.1-0.1,0.1-0.2c0.1-0.1,0.2-0.1,0.3-0.1h0.6c0.1,0,0.2,0,0.3,0.1
		c0.1,0.1,0.1,0.1,0.1,0.2l1.7,5.2c0.1,0.2,0.1,0.4,0.2,0.6s0.1,0.4,0.1,0.5c0-0.2,0.1-0.4,0.1-0.6c0-0.2,0.1-0.4,0.1-0.5l1.6-5.2
		c0-0.1,0.1-0.2,0.2-0.2c0.1-0.1,0.2-0.1,0.3-0.1h1.1l-2.6,8.1h-1.1c-0.1,0-0.2-0.1-0.3-0.3l-1.8-5.5c0-0.1-0.1-0.2-0.1-0.4
		c0-0.1-0.1-0.3-0.1-0.4c0,0.1-0.1,0.2-0.1,0.4c0,0.1-0.1,0.3-0.1,0.4l-1.8,5.5c-0.1,0.2-0.2,0.3-0.3,0.3h-1.1L118.6,62.5z"/>
	<path class="st2" d="M131.9,70.6v-8.1h0.8c0.2,0,0.3,0,0.3,0.1c0.1,0.1,0.1,0.2,0.1,0.3l0.1,1.3c0.3-0.6,0.6-1,1-1.3
		c0.4-0.3,0.9-0.5,1.4-0.5c0.2,0,0.4,0,0.6,0.1c0.2,0.1,0.3,0.1,0.5,0.2l-0.2,1.1c0,0.1-0.1,0.2-0.2,0.2c-0.1,0-0.2,0-0.3-0.1
		c-0.2,0-0.4-0.1-0.6-0.1c-0.5,0-0.9,0.1-1.2,0.4c-0.3,0.3-0.6,0.7-0.8,1.3v5.2H131.9z"/>
	<path class="st2" d="M141.7,62.3c0.6,0,1.1,0.1,1.6,0.3c0.5,0.2,0.9,0.5,1.2,0.8c0.3,0.4,0.6,0.8,0.8,1.3s0.3,1.1,0.3,1.7
		c0,0.6-0.1,1.2-0.3,1.7s-0.4,0.9-0.8,1.3c-0.3,0.4-0.7,0.6-1.2,0.8c-0.5,0.2-1,0.3-1.6,0.3c-0.6,0-1.1-0.1-1.6-0.3
		c-0.5-0.2-0.9-0.5-1.2-0.8c-0.3-0.4-0.6-0.8-0.8-1.3c-0.2-0.5-0.3-1.1-0.3-1.7c0-0.6,0.1-1.2,0.3-1.7c0.2-0.5,0.4-1,0.8-1.3
		c0.3-0.4,0.7-0.6,1.2-0.8C140.5,62.4,141.1,62.3,141.7,62.3z M141.7,69.6c0.8,0,1.4-0.3,1.8-0.8c0.4-0.5,0.6-1.3,0.6-2.2
		c0-1-0.2-1.7-0.6-2.3c-0.4-0.5-1-0.8-1.8-0.8c-0.4,0-0.8,0.1-1.1,0.2c-0.3,0.1-0.5,0.3-0.7,0.6c-0.2,0.3-0.3,0.6-0.4,1
		c-0.1,0.4-0.1,0.8-0.1,1.3c0,0.5,0,0.9,0.1,1.3s0.2,0.7,0.4,1s0.4,0.5,0.7,0.6C140.9,69.5,141.3,69.6,141.7,69.6z"/>
	<path class="st2" d="M147.3,70.6v-8.1h0.8c0.2,0,0.3,0.1,0.4,0.3l0.1,0.9c0.4-0.4,0.7-0.7,1.2-0.9s0.9-0.4,1.5-0.4
		c0.4,0,0.8,0.1,1.2,0.2c0.3,0.1,0.6,0.4,0.8,0.6c0.2,0.3,0.4,0.6,0.5,1s0.2,0.8,0.2,1.3v5.2h-1.4v-5.2c0-0.6-0.1-1.1-0.4-1.4
		c-0.3-0.3-0.7-0.5-1.3-0.5c-0.4,0-0.8,0.1-1.2,0.3c-0.4,0.2-0.7,0.5-1,0.8v6H147.3z"/>
	<path class="st2" d="M158.9,62.3c0.4,0,0.7,0,1,0.1s0.6,0.2,0.8,0.3h2.2v0.5c0,0.2-0.1,0.3-0.3,0.3l-0.9,0.1
		c0.2,0.3,0.3,0.7,0.3,1.2c0,0.4-0.1,0.8-0.2,1.1c-0.2,0.3-0.4,0.6-0.6,0.8c-0.3,0.2-0.6,0.4-1,0.5c-0.4,0.1-0.8,0.2-1.2,0.2
		c-0.4,0-0.7,0-1.1-0.1c-0.2,0.1-0.3,0.2-0.4,0.4c-0.1,0.1-0.1,0.3-0.1,0.4c0,0.2,0.1,0.3,0.2,0.5c0.2,0.1,0.4,0.2,0.6,0.2
		c0.3,0,0.5,0.1,0.9,0.1s0.7,0,1,0c0.3,0,0.7,0,1,0.1c0.3,0.1,0.6,0.2,0.9,0.3c0.3,0.1,0.5,0.3,0.6,0.6c0.2,0.2,0.2,0.5,0.2,0.9
		c0,0.4-0.1,0.7-0.3,1c-0.2,0.3-0.4,0.6-0.7,0.9c-0.3,0.3-0.7,0.5-1.2,0.6c-0.5,0.2-1,0.2-1.6,0.2c-0.6,0-1.1-0.1-1.6-0.2
		c-0.4-0.1-0.8-0.3-1.1-0.5c-0.3-0.2-0.5-0.4-0.7-0.7c-0.1-0.3-0.2-0.5-0.2-0.8c0-0.4,0.1-0.7,0.4-1c0.3-0.3,0.6-0.5,1-0.7
		c-0.2-0.1-0.4-0.2-0.5-0.4c-0.1-0.2-0.2-0.4-0.2-0.7c0-0.1,0-0.2,0.1-0.4c0-0.1,0.1-0.2,0.2-0.4s0.2-0.2,0.3-0.4
		c0.1-0.1,0.3-0.2,0.4-0.3c-0.4-0.2-0.7-0.5-0.9-0.9c-0.2-0.4-0.3-0.8-0.3-1.3c0-0.4,0.1-0.8,0.2-1.1c0.2-0.3,0.4-0.6,0.6-0.8
		s0.6-0.4,1-0.5C158,62.4,158.5,62.3,158.9,62.3z M161.4,71c0-0.2-0.1-0.4-0.2-0.5c-0.1-0.1-0.3-0.2-0.5-0.3
		c-0.2-0.1-0.4-0.1-0.7-0.2c-0.3,0-0.5,0-0.8,0c-0.3,0-0.6,0-0.8,0s-0.6,0-0.8-0.1c-0.3,0.1-0.6,0.3-0.7,0.5
		c-0.2,0.2-0.3,0.5-0.3,0.7c0,0.2,0,0.4,0.1,0.5s0.2,0.3,0.4,0.4c0.2,0.1,0.4,0.2,0.7,0.3c0.3,0.1,0.6,0.1,1,0.1c0.4,0,0.7,0,1-0.1
		c0.3-0.1,0.6-0.2,0.8-0.3c0.2-0.1,0.4-0.3,0.5-0.5C161.4,71.4,161.4,71.2,161.4,71z M158.9,66.6c0.3,0,0.5,0,0.8-0.1
		c0.2-0.1,0.4-0.2,0.6-0.3s0.3-0.3,0.3-0.5c0.1-0.2,0.1-0.4,0.1-0.7c0-0.5-0.2-0.9-0.5-1.2c-0.3-0.3-0.7-0.4-1.3-0.4
		c-0.6,0-1,0.1-1.3,0.4c-0.3,0.3-0.5,0.7-0.5,1.2c0,0.2,0,0.5,0.1,0.7c0.1,0.2,0.2,0.4,0.3,0.5s0.3,0.3,0.6,0.3
		S158.6,66.6,158.9,66.6z"/>
	<path class="st2" d="M167.4,73.3V62.5h0.8c0.2,0,0.3,0.1,0.4,0.3l0.1,1c0.3-0.4,0.7-0.8,1.2-1c0.4-0.3,1-0.4,1.5-0.4
		c0.5,0,0.9,0.1,1.3,0.3c0.4,0.2,0.7,0.4,1,0.8c0.3,0.3,0.5,0.8,0.6,1.3c0.1,0.5,0.2,1.1,0.2,1.8c0,0.6-0.1,1.2-0.2,1.7
		s-0.4,1-0.7,1.3s-0.7,0.7-1.1,0.9c-0.4,0.2-0.9,0.3-1.5,0.3c-0.5,0-0.9-0.1-1.3-0.2c-0.4-0.2-0.7-0.4-0.9-0.7v3.6H167.4z
		 M171.1,63.5c-0.5,0-0.9,0.1-1.2,0.3c-0.3,0.2-0.7,0.5-1,0.9v3.9c0.3,0.4,0.5,0.6,0.9,0.7c0.3,0.1,0.7,0.2,1,0.2
		c0.8,0,1.3-0.3,1.7-0.8c0.4-0.5,0.6-1.3,0.6-2.3c0-0.5,0-1-0.1-1.4c-0.1-0.4-0.2-0.7-0.4-0.9c-0.2-0.2-0.4-0.4-0.6-0.5
		C171.7,63.5,171.4,63.5,171.1,63.5z"/>
	<path class="st2" d="M179.6,62.3c0.6,0,1.1,0.1,1.6,0.3s0.9,0.5,1.2,0.8c0.3,0.4,0.6,0.8,0.8,1.3s0.3,1.1,0.3,1.7
		c0,0.6-0.1,1.2-0.3,1.7s-0.4,0.9-0.8,1.3c-0.3,0.4-0.7,0.6-1.2,0.8c-0.5,0.2-1,0.3-1.6,0.3s-1.1-0.1-1.6-0.3
		c-0.5-0.2-0.9-0.5-1.2-0.8c-0.3-0.4-0.6-0.8-0.8-1.3c-0.2-0.5-0.3-1.1-0.3-1.7c0-0.6,0.1-1.2,0.3-1.7c0.2-0.5,0.4-1,0.8-1.3
		c0.3-0.4,0.7-0.6,1.2-0.8S179,62.3,179.6,62.3z M179.6,69.6c0.8,0,1.4-0.3,1.8-0.8s0.6-1.3,0.6-2.2c0-1-0.2-1.7-0.6-2.3
		c-0.4-0.5-1-0.8-1.8-0.8c-0.4,0-0.8,0.1-1.1,0.2s-0.5,0.3-0.7,0.6c-0.2,0.3-0.3,0.6-0.4,1c-0.1,0.4-0.1,0.8-0.1,1.3
		c0,0.5,0,0.9,0.1,1.3s0.2,0.7,0.4,1c0.2,0.3,0.4,0.5,0.7,0.6S179.1,69.6,179.6,69.6z"/>
	<path class="st2" d="M189.8,63.8c-0.1,0.1-0.2,0.2-0.3,0.2c-0.1,0-0.2,0-0.3-0.1c-0.1-0.1-0.2-0.1-0.4-0.2s-0.3-0.1-0.5-0.2
		c-0.2-0.1-0.4-0.1-0.7-0.1c-0.2,0-0.5,0-0.6,0.1c-0.2,0.1-0.4,0.1-0.5,0.3c-0.1,0.1-0.2,0.2-0.3,0.4c-0.1,0.1-0.1,0.3-0.1,0.5
		c0,0.2,0.1,0.4,0.2,0.5s0.3,0.3,0.5,0.4c0.2,0.1,0.4,0.2,0.7,0.3c0.3,0.1,0.5,0.2,0.8,0.2c0.3,0.1,0.5,0.2,0.8,0.3
		c0.3,0.1,0.5,0.2,0.7,0.4c0.2,0.2,0.4,0.4,0.5,0.6c0.1,0.2,0.2,0.5,0.2,0.8c0,0.4-0.1,0.7-0.2,1c-0.1,0.3-0.3,0.6-0.6,0.8
		c-0.3,0.2-0.6,0.4-1,0.5c-0.4,0.1-0.8,0.2-1.3,0.2c-0.6,0-1.1-0.1-1.5-0.3c-0.5-0.2-0.8-0.4-1.2-0.7l0.3-0.5c0-0.1,0.1-0.1,0.2-0.2
		c0.1,0,0.1-0.1,0.2-0.1s0.2,0,0.3,0.1c0.1,0.1,0.2,0.2,0.4,0.2c0.2,0.1,0.3,0.2,0.6,0.2c0.2,0.1,0.5,0.1,0.8,0.1
		c0.3,0,0.5,0,0.7-0.1s0.4-0.2,0.5-0.3s0.2-0.3,0.3-0.4s0.1-0.3,0.1-0.5c0-0.2-0.1-0.4-0.2-0.6s-0.3-0.3-0.5-0.4
		c-0.2-0.1-0.4-0.2-0.7-0.3c-0.3-0.1-0.5-0.2-0.8-0.2c-0.3-0.1-0.5-0.2-0.8-0.3s-0.5-0.2-0.7-0.4s-0.4-0.4-0.5-0.6
		c-0.1-0.2-0.2-0.5-0.2-0.9c0-0.3,0.1-0.6,0.2-0.9c0.1-0.3,0.3-0.5,0.6-0.8c0.2-0.2,0.5-0.4,0.9-0.5s0.8-0.2,1.2-0.2
		c0.5,0,1,0.1,1.4,0.3c0.4,0.2,0.8,0.4,1.1,0.7L189.8,63.8z"/>
	<path class="st2" d="M194,59.9c0,0.1,0,0.3-0.1,0.4c-0.1,0.1-0.1,0.2-0.2,0.3c-0.1,0.1-0.2,0.2-0.3,0.2c-0.1,0.1-0.3,0.1-0.4,0.1
		s-0.3,0-0.4-0.1c-0.1-0.1-0.2-0.1-0.3-0.2c-0.1-0.1-0.2-0.2-0.2-0.3c-0.1-0.1-0.1-0.2-0.1-0.4c0-0.1,0-0.3,0.1-0.4
		c0.1-0.1,0.1-0.2,0.2-0.3c0.1-0.1,0.2-0.2,0.3-0.2c0.1-0.1,0.2-0.1,0.4-0.1s0.3,0,0.4,0.1c0.1,0.1,0.2,0.1,0.3,0.2
		c0.1,0.1,0.2,0.2,0.2,0.3C194,59.6,194,59.8,194,59.9z M193.7,62.5v8.1h-1.4v-8.1H193.7z"/>
	<path class="st2" d="M198.7,70.7c-0.6,0-1.1-0.2-1.5-0.5c-0.3-0.4-0.5-0.9-0.5-1.5v-5h-1c-0.1,0-0.2,0-0.2-0.1
		c-0.1-0.1-0.1-0.1-0.1-0.2v-0.6l1.3-0.2l0.3-2.5c0-0.1,0-0.1,0.1-0.2s0.1-0.1,0.2-0.1h0.7v2.8h2.3v1h-2.3v4.9
		c0,0.3,0.1,0.6,0.2,0.8c0.2,0.2,0.4,0.2,0.6,0.2c0.1,0,0.3,0,0.4-0.1s0.2-0.1,0.3-0.1c0.1,0,0.1-0.1,0.2-0.1c0.1,0,0.1-0.1,0.1-0.1
		c0.1,0,0.1,0,0.2,0.1l0.4,0.7c-0.2,0.2-0.5,0.4-0.9,0.5C199.4,70.6,199,70.7,198.7,70.7z"/>
	<path class="st2" d="M204.1,59.9c0,0.1,0,0.3-0.1,0.4c-0.1,0.1-0.1,0.2-0.2,0.3c-0.1,0.1-0.2,0.2-0.3,0.2c-0.1,0.1-0.3,0.1-0.4,0.1
		s-0.3,0-0.4-0.1c-0.1-0.1-0.2-0.1-0.3-0.2c-0.1-0.1-0.2-0.2-0.2-0.3c-0.1-0.1-0.1-0.2-0.1-0.4c0-0.1,0-0.3,0.1-0.4
		c0.1-0.1,0.1-0.2,0.2-0.3c0.1-0.1,0.2-0.2,0.3-0.2c0.1-0.1,0.2-0.1,0.4-0.1s0.3,0,0.4,0.1c0.1,0.1,0.2,0.1,0.3,0.2
		c0.1,0.1,0.2,0.2,0.2,0.3C204.1,59.6,204.1,59.8,204.1,59.9z M203.8,62.5v8.1h-1.4v-8.1H203.8z"/>
	<path class="st2" d="M209.6,62.3c0.6,0,1.1,0.1,1.6,0.3s0.9,0.5,1.2,0.8c0.3,0.4,0.6,0.8,0.8,1.3s0.3,1.1,0.3,1.7
		c0,0.6-0.1,1.2-0.3,1.7s-0.4,0.9-0.8,1.3c-0.3,0.4-0.7,0.6-1.2,0.8c-0.5,0.2-1,0.3-1.6,0.3s-1.1-0.1-1.6-0.3
		c-0.5-0.2-0.9-0.5-1.2-0.8c-0.3-0.4-0.6-0.8-0.8-1.3c-0.2-0.5-0.3-1.1-0.3-1.7c0-0.6,0.1-1.2,0.3-1.7c0.2-0.5,0.4-1,0.8-1.3
		c0.3-0.4,0.7-0.6,1.2-0.8S209,62.3,209.6,62.3z M209.6,69.6c0.8,0,1.4-0.3,1.8-0.8s0.6-1.3,0.6-2.2c0-1-0.2-1.7-0.6-2.3
		c-0.4-0.5-1-0.8-1.8-0.8c-0.4,0-0.8,0.1-1.1,0.2s-0.5,0.3-0.7,0.6c-0.2,0.3-0.3,0.6-0.4,1c-0.1,0.4-0.1,0.8-0.1,1.3
		c0,0.5,0,0.9,0.1,1.3s0.2,0.7,0.4,1c0.2,0.3,0.4,0.5,0.7,0.6S209.1,69.6,209.6,69.6z"/>
	<path class="st2" d="M215.2,70.6v-8.1h0.8c0.2,0,0.3,0.1,0.4,0.3l0.1,0.9c0.4-0.4,0.7-0.7,1.2-0.9c0.4-0.2,0.9-0.4,1.5-0.4
		c0.4,0,0.8,0.1,1.2,0.2s0.6,0.4,0.8,0.6s0.4,0.6,0.5,1c0.1,0.4,0.2,0.8,0.2,1.3v5.2h-1.4v-5.2c0-0.6-0.1-1.1-0.4-1.4
		c-0.3-0.3-0.7-0.5-1.3-0.5c-0.4,0-0.8,0.1-1.2,0.3c-0.4,0.2-0.7,0.5-1,0.8v6H215.2z"/>
</g>
<g class="st1">
	<path class="st2" d="M76,116.4c0.3,0,0.6,0,0.9,0s0.5-0.1,0.7-0.1s0.4-0.1,0.6-0.2c0.2-0.1,0.4-0.2,0.6-0.3v-2.5h-1.8
		c-0.1,0-0.2,0-0.2-0.1c-0.1-0.1-0.1-0.1-0.1-0.2V112h3.5v4.4c-0.3,0.2-0.6,0.4-0.9,0.5c-0.3,0.2-0.6,0.3-1,0.4
		c-0.4,0.1-0.7,0.2-1.1,0.2s-0.8,0.1-1.3,0.1c-0.8,0-1.6-0.1-2.3-0.4s-1.3-0.7-1.8-1.2s-0.9-1.1-1.2-1.9c-0.3-0.7-0.4-1.5-0.4-2.4
		c0-0.9,0.1-1.7,0.4-2.4c0.3-0.7,0.7-1.3,1.2-1.9s1.1-0.9,1.8-1.2c0.7-0.3,1.5-0.4,2.4-0.4c0.5,0,0.9,0,1.3,0.1
		c0.4,0.1,0.8,0.2,1.1,0.3c0.3,0.1,0.6,0.3,0.9,0.5s0.5,0.4,0.8,0.6l-0.4,0.7c-0.1,0.1-0.2,0.2-0.4,0.2c-0.1,0-0.2,0-0.3-0.1
		c-0.1-0.1-0.3-0.2-0.4-0.3s-0.4-0.2-0.6-0.3s-0.5-0.2-0.8-0.3s-0.7-0.1-1.1-0.1c-0.6,0-1.2,0.1-1.8,0.3c-0.5,0.2-1,0.5-1.3,0.9
		c-0.4,0.4-0.7,0.9-0.8,1.4c-0.2,0.6-0.3,1.2-0.3,1.9c0,0.7,0.1,1.4,0.3,1.9c0.2,0.6,0.5,1,0.9,1.4c0.4,0.4,0.8,0.7,1.3,0.9
		C74.9,116.3,75.4,116.4,76,116.4z"/>
	<path class="st2" d="M84,105.8v11.8h-1.4v-11.8H84z"/>
	<path class="st2" d="M89.8,109.3c0.6,0,1.1,0.1,1.6,0.3c0.5,0.2,0.9,0.5,1.2,0.8c0.3,0.4,0.6,0.8,0.8,1.3s0.3,1.1,0.3,1.7
		c0,0.6-0.1,1.2-0.3,1.7s-0.4,0.9-0.8,1.3c-0.3,0.4-0.7,0.6-1.2,0.8c-0.5,0.2-1,0.3-1.6,0.3c-0.6,0-1.1-0.1-1.6-0.3
		c-0.5-0.2-0.9-0.5-1.2-0.8c-0.3-0.4-0.6-0.8-0.8-1.3c-0.2-0.5-0.3-1.1-0.3-1.7c0-0.6,0.1-1.2,0.3-1.7c0.2-0.5,0.4-1,0.8-1.3
		c0.3-0.4,0.7-0.6,1.2-0.8C88.7,109.4,89.2,109.3,89.8,109.3z M89.8,116.6c0.8,0,1.4-0.3,1.8-0.8c0.4-0.5,0.6-1.3,0.6-2.2
		c0-1-0.2-1.7-0.6-2.3c-0.4-0.5-1-0.8-1.8-0.8c-0.4,0-0.8,0.1-1.1,0.2c-0.3,0.1-0.5,0.3-0.7,0.6c-0.2,0.3-0.3,0.6-0.4,1
		c-0.1,0.4-0.1,0.8-0.1,1.3c0,0.5,0,0.9,0.1,1.3s0.2,0.7,0.4,1s0.4,0.5,0.7,0.6C89.1,116.5,89.4,116.6,89.8,116.6z"/>
	<path class="st2" d="M95.5,117.6v-11.8h1.4v4.8c0.3-0.4,0.7-0.7,1.2-0.9c0.4-0.2,0.9-0.4,1.5-0.4c0.5,0,0.9,0.1,1.3,0.3
		c0.4,0.2,0.7,0.4,1,0.8c0.3,0.3,0.5,0.8,0.6,1.3s0.2,1.1,0.2,1.8c0,0.6-0.1,1.2-0.2,1.7s-0.4,1-0.7,1.3s-0.7,0.7-1.1,0.9
		s-0.9,0.3-1.5,0.3c-0.5,0-1-0.1-1.3-0.3c-0.4-0.2-0.7-0.5-1-0.8l-0.1,0.7c0,0.2-0.2,0.3-0.4,0.3H95.5z M99.1,110.5
		c-0.5,0-0.9,0.1-1.2,0.3c-0.3,0.2-0.7,0.5-1,0.9v3.9c0.3,0.4,0.5,0.6,0.9,0.7s0.7,0.2,1,0.2c0.8,0,1.3-0.3,1.7-0.8
		c0.4-0.5,0.6-1.3,0.6-2.3c0-0.5,0-1-0.1-1.4s-0.2-0.7-0.4-0.9c-0.2-0.2-0.4-0.4-0.6-0.5C99.7,110.5,99.4,110.5,99.1,110.5z"/>
	<path class="st2" d="M110.3,117.6h-0.6c-0.1,0-0.3,0-0.3-0.1c-0.1,0-0.1-0.1-0.2-0.3l-0.2-0.8c-0.2,0.2-0.4,0.4-0.6,0.5
		c-0.2,0.2-0.4,0.3-0.6,0.4c-0.2,0.1-0.5,0.2-0.7,0.2c-0.3,0.1-0.5,0.1-0.8,0.1c-0.3,0-0.6,0-0.9-0.1c-0.3-0.1-0.5-0.2-0.7-0.4
		c-0.2-0.2-0.4-0.4-0.5-0.7s-0.2-0.6-0.2-1c0-0.3,0.1-0.6,0.3-0.9c0.2-0.3,0.5-0.6,0.9-0.8c0.4-0.2,0.9-0.4,1.5-0.6
		c0.6-0.1,1.4-0.2,2.3-0.2v-0.6c0-0.6-0.1-1.1-0.4-1.4c-0.3-0.3-0.7-0.5-1.2-0.5c-0.3,0-0.6,0-0.9,0.1s-0.4,0.2-0.6,0.3
		s-0.3,0.2-0.4,0.3c-0.1,0.1-0.2,0.1-0.4,0.1c-0.1,0-0.2,0-0.3-0.1c-0.1,0-0.1-0.1-0.2-0.2l-0.3-0.5c0.4-0.4,0.9-0.8,1.4-1
		c0.5-0.2,1.1-0.3,1.7-0.3c0.5,0,0.9,0.1,1.2,0.2c0.4,0.1,0.6,0.4,0.9,0.6c0.2,0.3,0.4,0.6,0.5,1c0.1,0.4,0.2,0.8,0.2,1.2V117.6z
		 M106.6,116.7c0.3,0,0.5,0,0.7-0.1s0.4-0.1,0.6-0.2c0.2-0.1,0.4-0.2,0.5-0.3c0.2-0.1,0.3-0.3,0.5-0.5v-1.7c-0.7,0-1.2,0-1.7,0.1
		c-0.5,0.1-0.8,0.2-1.1,0.3c-0.3,0.1-0.5,0.3-0.6,0.5c-0.1,0.2-0.2,0.4-0.2,0.6c0,0.2,0,0.4,0.1,0.6c0.1,0.2,0.2,0.3,0.3,0.4
		c0.1,0.1,0.3,0.2,0.4,0.2C106.3,116.7,106.5,116.7,106.6,116.7z"/>
	<path class="st2" d="M114.1,105.8v11.8h-1.4v-11.8H114.1z"/>
	<path class="st2" d="M125.2,110.9c0,0.1-0.1,0.1-0.1,0.1c0,0-0.1,0-0.2,0c-0.1,0-0.2,0-0.3-0.1s-0.2-0.1-0.4-0.2s-0.3-0.2-0.5-0.2
		c-0.2-0.1-0.5-0.1-0.8-0.1c-0.4,0-0.7,0.1-1,0.2c-0.3,0.1-0.6,0.3-0.8,0.6c-0.2,0.3-0.4,0.6-0.5,1s-0.2,0.8-0.2,1.3
		c0,0.5,0.1,0.9,0.2,1.3c0.1,0.4,0.3,0.7,0.5,1s0.4,0.5,0.7,0.6c0.3,0.1,0.6,0.2,1,0.2c0.3,0,0.6,0,0.9-0.1c0.2-0.1,0.4-0.2,0.6-0.3
		c0.1-0.1,0.3-0.2,0.4-0.3c0.1-0.1,0.2-0.1,0.3-0.1c0.1,0,0.2,0,0.3,0.1l0.4,0.5c-0.4,0.4-0.8,0.7-1.3,0.9c-0.5,0.2-1.1,0.3-1.7,0.3
		c-0.5,0-1-0.1-1.4-0.3s-0.8-0.5-1.1-0.8c-0.3-0.4-0.6-0.8-0.8-1.3c-0.2-0.5-0.3-1.1-0.3-1.8c0-0.6,0.1-1.2,0.3-1.7
		c0.2-0.5,0.4-1,0.7-1.3c0.3-0.4,0.7-0.7,1.2-0.9s1-0.3,1.6-0.3c0.6,0,1.1,0.1,1.5,0.3c0.4,0.2,0.8,0.4,1.2,0.8L125.2,110.9z"/>
	<path class="st2" d="M130.4,109.3c0.6,0,1.1,0.1,1.6,0.3c0.5,0.2,0.9,0.5,1.2,0.8c0.3,0.4,0.6,0.8,0.8,1.3s0.3,1.1,0.3,1.7
		c0,0.6-0.1,1.2-0.3,1.7s-0.4,0.9-0.8,1.3c-0.3,0.4-0.7,0.6-1.2,0.8c-0.5,0.2-1,0.3-1.6,0.3c-0.6,0-1.1-0.1-1.6-0.3
		c-0.5-0.2-0.9-0.5-1.2-0.8c-0.3-0.4-0.6-0.8-0.8-1.3c-0.2-0.5-0.3-1.1-0.3-1.7c0-0.6,0.1-1.2,0.3-1.7c0.2-0.5,0.4-1,0.8-1.3
		c0.3-0.4,0.7-0.6,1.2-0.8C129.3,109.4,129.8,109.3,130.4,109.3z M130.4,116.6c0.8,0,1.4-0.3,1.8-0.8c0.4-0.5,0.6-1.3,0.6-2.2
		c0-1-0.2-1.7-0.6-2.3c-0.4-0.5-1-0.8-1.8-0.8c-0.4,0-0.8,0.1-1.1,0.2c-0.3,0.1-0.5,0.3-0.7,0.6c-0.2,0.3-0.3,0.6-0.4,1
		c-0.1,0.4-0.1,0.8-0.1,1.3c0,0.5,0,0.9,0.1,1.3s0.2,0.7,0.4,1s0.4,0.5,0.7,0.6C129.7,116.5,130,116.6,130.4,116.6z"/>
	<path class="st2" d="M136.1,117.6v-8.1h0.8c0.2,0,0.3,0,0.3,0.1c0.1,0.1,0.1,0.2,0.1,0.3l0.1,1.3c0.3-0.6,0.6-1,1-1.3
		c0.4-0.3,0.9-0.5,1.4-0.5c0.2,0,0.4,0,0.6,0.1c0.2,0.1,0.3,0.1,0.5,0.2l-0.2,1.1c0,0.1-0.1,0.2-0.2,0.2c-0.1,0-0.2,0-0.3-0.1
		c-0.2,0-0.4-0.1-0.6-0.1c-0.5,0-0.9,0.1-1.2,0.4c-0.3,0.3-0.6,0.7-0.8,1.3v5.2H136.1z"/>
	<path class="st2" d="M142.5,117.6v-8.1h0.8c0.2,0,0.3,0,0.3,0.1c0.1,0.1,0.1,0.2,0.1,0.3l0.1,1.3c0.3-0.6,0.6-1,1-1.3
		c0.4-0.3,0.9-0.5,1.4-0.5c0.2,0,0.4,0,0.6,0.1c0.2,0.1,0.3,0.1,0.5,0.2l-0.2,1.1c0,0.1-0.1,0.2-0.2,0.2c-0.1,0-0.2,0-0.3-0.1
		c-0.2,0-0.4-0.1-0.6-0.1c-0.5,0-0.9,0.1-1.2,0.4c-0.3,0.3-0.6,0.7-0.8,1.3v5.2H142.5z"/>
	<path class="st2" d="M152.2,109.3c0.5,0,0.9,0.1,1.3,0.2c0.4,0.2,0.8,0.4,1.1,0.7c0.3,0.3,0.5,0.7,0.7,1.1c0.2,0.5,0.3,1,0.3,1.5
		c0,0.2,0,0.4-0.1,0.4c0,0.1-0.1,0.1-0.3,0.1h-5.4c0,0.5,0.1,1,0.2,1.3s0.3,0.7,0.5,0.9c0.2,0.3,0.5,0.4,0.8,0.6
		c0.3,0.1,0.7,0.2,1,0.2c0.4,0,0.7,0,0.9-0.1s0.5-0.2,0.7-0.3c0.2-0.1,0.3-0.2,0.5-0.3c0.1-0.1,0.2-0.1,0.3-0.1c0.1,0,0.2,0,0.3,0.1
		l0.4,0.5c-0.2,0.2-0.4,0.4-0.6,0.6c-0.2,0.2-0.5,0.3-0.8,0.4c-0.3,0.1-0.6,0.2-0.9,0.2c-0.3,0.1-0.6,0.1-0.9,0.1
		c-0.6,0-1.1-0.1-1.5-0.3c-0.5-0.2-0.9-0.5-1.2-0.8c-0.3-0.4-0.6-0.8-0.8-1.4c-0.2-0.5-0.3-1.2-0.3-1.9c0-0.6,0.1-1.1,0.3-1.6
		c0.2-0.5,0.4-0.9,0.7-1.3c0.3-0.4,0.7-0.6,1.2-0.8S151.6,109.3,152.2,109.3z M152.2,110.4c-0.7,0-1.2,0.2-1.6,0.6
		c-0.4,0.4-0.6,0.9-0.7,1.7h4.4c0-0.3,0-0.6-0.1-0.9c-0.1-0.3-0.2-0.5-0.4-0.7c-0.2-0.2-0.4-0.4-0.6-0.5S152.5,110.4,152.2,110.4z"
		/>
	<path class="st2" d="M162.9,110.9c0,0.1-0.1,0.1-0.1,0.1c0,0-0.1,0-0.2,0c-0.1,0-0.2,0-0.3-0.1s-0.2-0.1-0.4-0.2s-0.3-0.2-0.5-0.2
		c-0.2-0.1-0.5-0.1-0.8-0.1c-0.4,0-0.7,0.1-1,0.2c-0.3,0.1-0.6,0.3-0.8,0.6c-0.2,0.3-0.4,0.6-0.5,1s-0.2,0.8-0.2,1.3
		c0,0.5,0.1,0.9,0.2,1.3c0.1,0.4,0.3,0.7,0.5,1s0.4,0.5,0.7,0.6c0.3,0.1,0.6,0.2,1,0.2c0.3,0,0.6,0,0.9-0.1c0.2-0.1,0.4-0.2,0.6-0.3
		c0.1-0.1,0.3-0.2,0.4-0.3c0.1-0.1,0.2-0.1,0.3-0.1c0.1,0,0.2,0,0.3,0.1l0.4,0.5c-0.4,0.4-0.8,0.7-1.3,0.9c-0.5,0.2-1.1,0.3-1.7,0.3
		c-0.5,0-1-0.1-1.4-0.3s-0.8-0.5-1.1-0.8c-0.3-0.4-0.6-0.8-0.8-1.3c-0.2-0.5-0.3-1.1-0.3-1.8c0-0.6,0.1-1.2,0.3-1.7
		c0.2-0.5,0.4-1,0.7-1.3c0.3-0.4,0.7-0.7,1.2-0.9s1-0.3,1.6-0.3c0.6,0,1.1,0.1,1.5,0.3c0.4,0.2,0.8,0.4,1.2,0.8L162.9,110.9z"/>
	<path class="st2" d="M167.3,117.7c-0.6,0-1.1-0.2-1.5-0.5c-0.3-0.4-0.5-0.9-0.5-1.5v-5h-1c-0.1,0-0.2,0-0.2-0.1s-0.1-0.1-0.1-0.2
		v-0.6l1.3-0.2l0.3-2.5c0-0.1,0-0.1,0.1-0.2s0.1-0.1,0.2-0.1h0.7v2.8h2.3v1h-2.3v4.9c0,0.3,0.1,0.6,0.2,0.8c0.2,0.2,0.4,0.2,0.6,0.2
		c0.1,0,0.3,0,0.4-0.1s0.2-0.1,0.3-0.1c0.1,0,0.1-0.1,0.2-0.1c0.1,0,0.1-0.1,0.1-0.1c0.1,0,0.1,0,0.2,0.1l0.4,0.7
		c-0.2,0.2-0.5,0.4-0.9,0.5C168,117.6,167.6,117.7,167.3,117.7z"/>
</g>
<rect x="226" y="24" class="st4" width="60" height="106"/>
<line class="st5" x1="226" y1="72" x2="286" y2="72"/>
<g class="st1">
	<path class="st2" d="M303.2,22.9c0,0.4-0.1,0.8-0.2,1.2c-0.1,0.4-0.3,0.7-0.6,0.9c-0.2,0.2-0.5,0.4-0.8,0.6c-0.3,0.1-0.6,0.2-1,0.2
		c-0.4,0-0.7-0.1-1-0.2s-0.6-0.3-0.8-0.6c-0.2-0.2-0.4-0.5-0.5-0.9s-0.2-0.8-0.2-1.2c0-0.5,0.1-0.9,0.2-1.2s0.3-0.7,0.5-0.9
		s0.5-0.4,0.8-0.6s0.6-0.2,1-0.2c0.4,0,0.7,0.1,1,0.2c0.3,0.1,0.6,0.3,0.8,0.6s0.4,0.5,0.5,0.9S303.2,22.4,303.2,22.9z M307.2,20.4
		c0.1-0.1,0.1-0.2,0.2-0.2s0.2-0.1,0.3-0.1h1l-8.4,11.2c-0.1,0.1-0.1,0.1-0.2,0.2c-0.1,0-0.2,0.1-0.3,0.1h-1.1L307.2,20.4z
		 M302.1,22.9c0-0.4,0-0.7-0.1-0.9c-0.1-0.2-0.2-0.4-0.3-0.6c-0.1-0.2-0.3-0.3-0.5-0.3c-0.2-0.1-0.4-0.1-0.6-0.1s-0.4,0-0.6,0.1
		c-0.2,0.1-0.3,0.2-0.5,0.3s-0.2,0.4-0.3,0.6s-0.1,0.5-0.1,0.9c0,0.3,0,0.6,0.1,0.9c0.1,0.2,0.2,0.4,0.3,0.6
		c0.1,0.2,0.3,0.3,0.5,0.3c0.2,0.1,0.4,0.1,0.6,0.1s0.4,0,0.6-0.1c0.2-0.1,0.3-0.2,0.5-0.3c0.1-0.2,0.2-0.3,0.3-0.6
		C302,23.5,302.1,23.2,302.1,22.9z M309.5,28.9c0,0.4-0.1,0.8-0.2,1.2c-0.1,0.4-0.3,0.6-0.6,0.9c-0.2,0.2-0.5,0.4-0.8,0.6
		s-0.6,0.2-1,0.2c-0.4,0-0.7-0.1-1-0.2c-0.3-0.1-0.6-0.3-0.8-0.6c-0.2-0.2-0.4-0.5-0.5-0.9c-0.1-0.4-0.2-0.8-0.2-1.2
		c0-0.5,0.1-0.9,0.2-1.2c0.1-0.4,0.3-0.7,0.5-0.9s0.5-0.4,0.8-0.6c0.3-0.1,0.6-0.2,1-0.2c0.4,0,0.7,0.1,1,0.2
		c0.3,0.1,0.6,0.3,0.8,0.6s0.4,0.5,0.5,0.9C309.5,28,309.5,28.4,309.5,28.9z M308.4,28.9c0-0.4,0-0.7-0.1-0.9
		c-0.1-0.2-0.2-0.5-0.3-0.6s-0.3-0.3-0.5-0.3s-0.4-0.1-0.6-0.1s-0.4,0-0.6,0.1c-0.2,0.1-0.3,0.2-0.5,0.3c-0.1,0.2-0.2,0.4-0.3,0.6
		c-0.1,0.2-0.1,0.5-0.1,0.9c0,0.3,0,0.6,0.1,0.9c0.1,0.2,0.2,0.4,0.3,0.6c0.1,0.2,0.3,0.3,0.5,0.3c0.2,0.1,0.4,0.1,0.6,0.1
		s0.4,0,0.6-0.1c0.2-0.1,0.3-0.2,0.5-0.3c0.1-0.2,0.2-0.3,0.3-0.6C308.4,29.5,308.4,29.2,308.4,28.9z"/>
	<path class="st2" d="M313.3,20.1h1.3c0.1,0,0.3,0,0.3,0.1c0.1,0.1,0.2,0.2,0.2,0.3l2.4,8c0,0.1,0.1,0.3,0.1,0.5
		c0,0.2,0.1,0.3,0.1,0.5c0-0.2,0.1-0.4,0.1-0.5c0-0.2,0.1-0.3,0.1-0.5l2.7-8c0-0.1,0.1-0.2,0.2-0.3s0.2-0.1,0.3-0.1h0.4
		c0.1,0,0.3,0,0.3,0.1s0.2,0.2,0.2,0.3l2.7,8c0.1,0.3,0.2,0.6,0.3,1c0-0.2,0.1-0.3,0.1-0.5s0.1-0.3,0.1-0.4l2.4-8
		c0-0.1,0.1-0.2,0.2-0.3c0.1-0.1,0.2-0.1,0.3-0.1h1.2l-3.6,11.5h-1.4l-2.9-8.7c-0.1-0.2-0.1-0.4-0.2-0.6c0,0.1-0.1,0.2-0.1,0.3
		c0,0.1,0,0.2-0.1,0.3l-2.9,8.7h-1.4L313.3,20.1z"/>
	<path class="st2" d="M332.6,20.9c0,0.1,0,0.3-0.1,0.4c-0.1,0.1-0.1,0.2-0.2,0.3c-0.1,0.1-0.2,0.2-0.3,0.2c-0.1,0.1-0.3,0.1-0.4,0.1
		s-0.3,0-0.4-0.1c-0.1-0.1-0.2-0.1-0.3-0.2c-0.1-0.1-0.2-0.2-0.2-0.3c-0.1-0.1-0.1-0.2-0.1-0.4c0-0.1,0-0.3,0.1-0.4
		c0.1-0.1,0.1-0.2,0.2-0.3c0.1-0.1,0.2-0.2,0.3-0.2c0.1-0.1,0.2-0.1,0.4-0.1s0.3,0,0.4,0.1c0.1,0.1,0.2,0.1,0.3,0.2
		c0.1,0.1,0.2,0.2,0.2,0.3C332.6,20.6,332.6,20.8,332.6,20.9z M332.3,23.5v8.1h-1.4v-8.1H332.3z"/>
	<path class="st2" d="M334.8,31.6v-8.1h0.8c0.2,0,0.3,0.1,0.4,0.3l0.1,0.9c0.4-0.4,0.7-0.7,1.2-0.9s0.9-0.4,1.5-0.4
		c0.4,0,0.8,0.1,1.2,0.2c0.3,0.1,0.6,0.4,0.8,0.6s0.4,0.6,0.5,1s0.2,0.8,0.2,1.3v5.2h-1.4v-5.2c0-0.6-0.1-1.1-0.4-1.4
		c-0.3-0.3-0.7-0.5-1.3-0.5c-0.4,0-0.8,0.1-1.2,0.3c-0.4,0.2-0.7,0.5-1,0.8v6H334.8z"/>
	<path class="st2" d="M348.3,24.8c-0.1,0.1-0.2,0.2-0.3,0.2c-0.1,0-0.2,0-0.3-0.1c-0.1-0.1-0.2-0.1-0.4-0.2
		c-0.1-0.1-0.3-0.1-0.5-0.2c-0.2-0.1-0.4-0.1-0.7-0.1c-0.2,0-0.5,0-0.6,0.1c-0.2,0.1-0.4,0.1-0.5,0.3c-0.1,0.1-0.2,0.2-0.3,0.4
		c-0.1,0.1-0.1,0.3-0.1,0.5c0,0.2,0.1,0.4,0.2,0.5c0.1,0.1,0.3,0.3,0.5,0.4c0.2,0.1,0.4,0.2,0.7,0.3s0.5,0.2,0.8,0.2
		c0.3,0.1,0.5,0.2,0.8,0.3s0.5,0.2,0.7,0.4s0.4,0.4,0.5,0.6c0.1,0.2,0.2,0.5,0.2,0.8c0,0.4-0.1,0.7-0.2,1c-0.1,0.3-0.3,0.6-0.6,0.8
		c-0.3,0.2-0.6,0.4-1,0.5c-0.4,0.1-0.8,0.2-1.3,0.2c-0.6,0-1.1-0.1-1.5-0.3c-0.5-0.2-0.8-0.4-1.2-0.7l0.3-0.5c0-0.1,0.1-0.1,0.2-0.2
		c0.1,0,0.1-0.1,0.2-0.1s0.2,0,0.3,0.1c0.1,0.1,0.2,0.2,0.4,0.2c0.2,0.1,0.3,0.2,0.6,0.2c0.2,0.1,0.5,0.1,0.8,0.1
		c0.3,0,0.5,0,0.7-0.1s0.4-0.2,0.5-0.3s0.2-0.3,0.3-0.4c0.1-0.2,0.1-0.3,0.1-0.5c0-0.2-0.1-0.4-0.2-0.6s-0.3-0.3-0.5-0.4
		c-0.2-0.1-0.4-0.2-0.7-0.3c-0.3-0.1-0.5-0.2-0.8-0.2c-0.3-0.1-0.5-0.2-0.8-0.3c-0.3-0.1-0.5-0.2-0.7-0.4c-0.2-0.2-0.4-0.4-0.5-0.6
		c-0.1-0.2-0.2-0.5-0.2-0.9c0-0.3,0.1-0.6,0.2-0.9c0.1-0.3,0.3-0.5,0.6-0.8c0.2-0.2,0.5-0.4,0.9-0.5c0.4-0.1,0.8-0.2,1.2-0.2
		c0.5,0,1,0.1,1.4,0.3c0.4,0.2,0.8,0.4,1.1,0.7L348.3,24.8z"/>
</g>
<g class="st1">
	<path class="st2" d="M304,75.4c0.3,0,0.6,0,0.9,0s0.5-0.1,0.7-0.1s0.4-0.1,0.6-0.2c0.2-0.1,0.4-0.2,0.6-0.3v-2.5h-1.8
		c-0.1,0-0.2,0-0.2-0.1c-0.1-0.1-0.1-0.1-0.1-0.2V71h3.5v4.4c-0.3,0.2-0.6,0.4-0.9,0.5c-0.3,0.2-0.6,0.3-1,0.4
		c-0.4,0.1-0.7,0.2-1.1,0.2s-0.8,0.1-1.3,0.1c-0.8,0-1.6-0.1-2.3-0.4s-1.3-0.7-1.8-1.2c-0.5-0.5-0.9-1.1-1.2-1.9
		c-0.3-0.7-0.4-1.5-0.4-2.4c0-0.9,0.1-1.7,0.4-2.4s0.7-1.3,1.2-1.9c0.5-0.5,1.1-0.9,1.8-1.2c0.7-0.3,1.5-0.4,2.4-0.4
		c0.5,0,0.9,0,1.3,0.1c0.4,0.1,0.8,0.2,1.1,0.3s0.6,0.3,0.9,0.5c0.3,0.2,0.5,0.4,0.8,0.6l-0.4,0.7c-0.1,0.1-0.2,0.2-0.4,0.2
		c-0.1,0-0.2,0-0.3-0.1c-0.1-0.1-0.3-0.2-0.4-0.3c-0.2-0.1-0.4-0.2-0.6-0.3s-0.5-0.2-0.8-0.3c-0.3-0.1-0.7-0.1-1.1-0.1
		c-0.6,0-1.2,0.1-1.8,0.3c-0.5,0.2-1,0.5-1.3,0.9c-0.4,0.4-0.7,0.9-0.8,1.4c-0.2,0.6-0.3,1.2-0.3,1.9c0,0.7,0.1,1.4,0.3,1.9
		c0.2,0.6,0.5,1,0.9,1.4s0.8,0.7,1.3,0.9S303.4,75.4,304,75.4z"/>
	<path class="st2" d="M312,64.8v11.8h-1.4V64.8H312z"/>
	<path class="st2" d="M317.8,68.3c0.6,0,1.1,0.1,1.6,0.3s0.9,0.5,1.2,0.8c0.3,0.4,0.6,0.8,0.8,1.3s0.3,1.1,0.3,1.7
		c0,0.6-0.1,1.2-0.3,1.7s-0.4,0.9-0.8,1.3c-0.3,0.4-0.7,0.6-1.2,0.8c-0.5,0.2-1,0.3-1.6,0.3c-0.6,0-1.1-0.1-1.6-0.3
		c-0.5-0.2-0.9-0.5-1.2-0.8c-0.3-0.4-0.6-0.8-0.8-1.3s-0.3-1.1-0.3-1.7c0-0.6,0.1-1.2,0.3-1.7s0.4-1,0.8-1.3
		c0.3-0.4,0.7-0.6,1.2-0.8S317.2,68.3,317.8,68.3z M317.8,75.6c0.8,0,1.4-0.3,1.8-0.8c0.4-0.5,0.6-1.3,0.6-2.2c0-1-0.2-1.7-0.6-2.3
		c-0.4-0.5-1-0.8-1.8-0.8c-0.4,0-0.8,0.1-1.1,0.2s-0.5,0.3-0.7,0.6c-0.2,0.3-0.3,0.6-0.4,1c-0.1,0.4-0.1,0.8-0.1,1.3
		c0,0.5,0,0.9,0.1,1.3s0.2,0.7,0.4,1s0.4,0.5,0.7,0.6S317.4,75.6,317.8,75.6z"/>
	<path class="st2" d="M323.5,76.6V64.8h1.4v4.8c0.3-0.4,0.7-0.7,1.2-0.9c0.4-0.2,0.9-0.4,1.5-0.4c0.5,0,0.9,0.1,1.3,0.3
		s0.7,0.4,1,0.8c0.3,0.3,0.5,0.8,0.6,1.3c0.1,0.5,0.2,1.1,0.2,1.8c0,0.6-0.1,1.2-0.2,1.7s-0.4,1-0.7,1.3c-0.3,0.4-0.7,0.7-1.1,0.9
		s-0.9,0.3-1.5,0.3c-0.5,0-1-0.1-1.3-0.3c-0.4-0.2-0.7-0.5-1-0.8l-0.1,0.7c0,0.2-0.2,0.3-0.4,0.3H323.5z M327.1,69.5
		c-0.5,0-0.9,0.1-1.2,0.3c-0.3,0.2-0.7,0.5-1,0.9v3.9c0.3,0.4,0.5,0.6,0.9,0.7c0.3,0.1,0.7,0.2,1,0.2c0.8,0,1.3-0.3,1.7-0.8
		c0.4-0.5,0.6-1.3,0.6-2.3c0-0.5,0-1-0.1-1.4c-0.1-0.4-0.2-0.7-0.4-0.9c-0.2-0.2-0.4-0.4-0.6-0.5C327.7,69.5,327.4,69.5,327.1,69.5z
		"/>
	<path class="st2" d="M338.3,76.6h-0.6c-0.1,0-0.3,0-0.3-0.1c-0.1,0-0.1-0.1-0.2-0.3l-0.2-0.8c-0.2,0.2-0.4,0.4-0.6,0.5
		c-0.2,0.2-0.4,0.3-0.6,0.4c-0.2,0.1-0.5,0.2-0.7,0.2c-0.3,0.1-0.5,0.1-0.8,0.1c-0.3,0-0.6,0-0.9-0.1c-0.3-0.1-0.5-0.2-0.7-0.4
		c-0.2-0.2-0.4-0.4-0.5-0.7s-0.2-0.6-0.2-1c0-0.3,0.1-0.6,0.3-0.9c0.2-0.3,0.5-0.6,0.9-0.8c0.4-0.2,0.9-0.4,1.5-0.6
		c0.6-0.1,1.4-0.2,2.3-0.2v-0.6c0-0.6-0.1-1.1-0.4-1.4c-0.3-0.3-0.7-0.5-1.2-0.5c-0.3,0-0.6,0-0.9,0.1s-0.4,0.2-0.6,0.3
		c-0.2,0.1-0.3,0.2-0.4,0.3s-0.2,0.1-0.4,0.1c-0.1,0-0.2,0-0.3-0.1c-0.1,0-0.1-0.1-0.2-0.2l-0.3-0.5c0.4-0.4,0.9-0.8,1.4-1
		c0.5-0.2,1.1-0.3,1.7-0.3c0.5,0,0.9,0.1,1.2,0.2c0.4,0.1,0.6,0.4,0.9,0.6c0.2,0.3,0.4,0.6,0.5,1c0.1,0.4,0.2,0.8,0.2,1.2V76.6z
		 M334.6,75.7c0.3,0,0.5,0,0.7-0.1s0.4-0.1,0.6-0.2c0.2-0.1,0.4-0.2,0.5-0.3c0.2-0.1,0.3-0.3,0.5-0.5v-1.7c-0.7,0-1.2,0-1.7,0.1
		c-0.5,0.1-0.8,0.2-1.1,0.3c-0.3,0.1-0.5,0.3-0.6,0.5c-0.1,0.2-0.2,0.4-0.2,0.6c0,0.2,0,0.4,0.1,0.6c0.1,0.2,0.2,0.3,0.3,0.4
		c0.1,0.1,0.3,0.2,0.4,0.2C334.3,75.7,334.5,75.7,334.6,75.7z"/>
	<path class="st2" d="M342.1,64.8v11.8h-1.4V64.8H342.1z"/>
</g>
<g class="st1">
	<path class="st2" d="M353.6,76.6H353c-0.1,0-0.3,0-0.3-0.1c-0.1,0-0.1-0.1-0.2-0.3l-0.2-0.8c-0.2,0.2-0.4,0.4-0.6,0.5
		c-0.2,0.2-0.4,0.3-0.6,0.4c-0.2,0.1-0.5,0.2-0.7,0.2c-0.3,0.1-0.5,0.1-0.8,0.1c-0.3,0-0.6,0-0.9-0.1c-0.3-0.1-0.5-0.2-0.7-0.4
		c-0.2-0.2-0.4-0.4-0.5-0.7c-0.1-0.3-0.2-0.6-0.2-1c0-0.3,0.1-0.6,0.3-0.9c0.2-0.3,0.5-0.6,0.9-0.8c0.4-0.2,0.9-0.4,1.5-0.6
		c0.6-0.1,1.4-0.2,2.3-0.2v-0.6c0-0.6-0.1-1.1-0.4-1.4c-0.3-0.3-0.7-0.5-1.2-0.5c-0.3,0-0.6,0-0.9,0.1c-0.2,0.1-0.4,0.2-0.6,0.3
		c-0.2,0.1-0.3,0.2-0.4,0.3c-0.1,0.1-0.2,0.1-0.4,0.1c-0.1,0-0.2,0-0.3-0.1c-0.1,0-0.1-0.1-0.2-0.2l-0.3-0.5c0.4-0.4,0.9-0.8,1.4-1
		c0.5-0.2,1.1-0.3,1.7-0.3c0.5,0,0.9,0.1,1.2,0.2c0.4,0.1,0.6,0.4,0.9,0.6c0.2,0.3,0.4,0.6,0.5,1c0.1,0.4,0.2,0.8,0.2,1.2V76.6z
		 M349.9,75.7c0.3,0,0.5,0,0.7-0.1s0.4-0.1,0.6-0.2c0.2-0.1,0.4-0.2,0.5-0.3c0.2-0.1,0.3-0.3,0.5-0.5v-1.7c-0.7,0-1.2,0-1.7,0.1
		c-0.5,0.1-0.8,0.2-1.1,0.3c-0.3,0.1-0.5,0.3-0.6,0.5c-0.1,0.2-0.2,0.4-0.2,0.6c0,0.2,0,0.4,0.1,0.6c0.1,0.2,0.2,0.3,0.3,0.4
		c0.1,0.1,0.3,0.2,0.4,0.2S349.8,75.7,349.9,75.7z"/>
</g>
<g class="st1">
	<path class="st2" d="M354.5,68.5h1.2c0.1,0,0.2,0,0.3,0.1c0.1,0.1,0.1,0.1,0.2,0.2l2.1,5.2c0.1,0.2,0.1,0.4,0.2,0.6
		c0,0.2,0.1,0.4,0.1,0.6c0-0.2,0.1-0.4,0.1-0.6c0-0.2,0.1-0.4,0.2-0.6l2.1-5.2c0-0.1,0.1-0.2,0.2-0.2c0.1-0.1,0.2-0.1,0.3-0.1h1.1
		l-3.3,8.1h-1.3L354.5,68.5z"/>
</g>
<g class="st1">
	<path class="st2" d="M366.7,68.3c0.5,0,0.9,0.1,1.3,0.2c0.4,0.2,0.8,0.4,1.1,0.7c0.3,0.3,0.5,0.7,0.7,1.1c0.2,0.5,0.3,1,0.3,1.5
		c0,0.2,0,0.4-0.1,0.4c0,0.1-0.1,0.1-0.3,0.1h-5.4c0,0.5,0.1,1,0.2,1.3s0.3,0.7,0.5,0.9c0.2,0.3,0.5,0.4,0.8,0.6
		c0.3,0.1,0.7,0.2,1,0.2c0.4,0,0.7,0,0.9-0.1s0.5-0.2,0.7-0.3c0.2-0.1,0.3-0.2,0.5-0.3s0.2-0.1,0.3-0.1c0.1,0,0.2,0,0.3,0.1l0.4,0.5
		c-0.2,0.2-0.4,0.4-0.6,0.6c-0.2,0.2-0.5,0.3-0.8,0.4c-0.3,0.1-0.6,0.2-0.9,0.2s-0.6,0.1-0.9,0.1c-0.6,0-1.1-0.1-1.5-0.3
		c-0.5-0.2-0.9-0.5-1.2-0.8s-0.6-0.8-0.8-1.4c-0.2-0.5-0.3-1.2-0.3-1.9c0-0.6,0.1-1.1,0.3-1.6c0.2-0.5,0.4-0.9,0.7-1.3
		c0.3-0.4,0.7-0.6,1.2-0.8C365.6,68.4,366.1,68.3,366.7,68.3z M366.8,69.4c-0.7,0-1.2,0.2-1.6,0.6c-0.4,0.4-0.6,0.9-0.7,1.7h4.4
		c0-0.3,0-0.6-0.1-0.9c-0.1-0.3-0.2-0.5-0.4-0.7c-0.2-0.2-0.4-0.4-0.6-0.5C367.4,69.4,367.1,69.4,366.8,69.4z"/>
</g>
<g class="st1">
	<path class="st2" d="M371.9,76.6v-8.1h0.8c0.2,0,0.3,0,0.3,0.1s0.1,0.2,0.1,0.3l0.1,1.3c0.3-0.6,0.6-1,1-1.3
		c0.4-0.3,0.9-0.5,1.4-0.5c0.2,0,0.4,0,0.6,0.1s0.3,0.1,0.5,0.2l-0.2,1.1c0,0.1-0.1,0.2-0.2,0.2c-0.1,0-0.2,0-0.3-0.1
		c-0.2,0-0.4-0.1-0.6-0.1c-0.5,0-0.9,0.1-1.2,0.4s-0.6,0.7-0.8,1.3v5.2H371.9z"/>
</g>
<g class="st1">
	<path class="st2" d="M384,76.6h-0.6c-0.1,0-0.3,0-0.3-0.1c-0.1,0-0.1-0.1-0.2-0.3l-0.2-0.8c-0.2,0.2-0.4,0.4-0.6,0.5
		c-0.2,0.2-0.4,0.3-0.6,0.4c-0.2,0.1-0.5,0.2-0.7,0.2c-0.3,0.1-0.5,0.1-0.8,0.1c-0.3,0-0.6,0-0.9-0.1c-0.3-0.1-0.5-0.2-0.7-0.4
		c-0.2-0.2-0.4-0.4-0.5-0.7s-0.2-0.6-0.2-1c0-0.3,0.1-0.6,0.3-0.9c0.2-0.3,0.5-0.6,0.9-0.8c0.4-0.2,0.9-0.4,1.5-0.6
		c0.6-0.1,1.4-0.2,2.3-0.2v-0.6c0-0.6-0.1-1.1-0.4-1.4c-0.3-0.3-0.7-0.5-1.2-0.5c-0.3,0-0.6,0-0.9,0.1s-0.4,0.2-0.6,0.3
		c-0.2,0.1-0.3,0.2-0.4,0.3c-0.1,0.1-0.3,0.1-0.4,0.1c-0.1,0-0.2,0-0.3-0.1c-0.1,0-0.1-0.1-0.2-0.2l-0.3-0.5c0.4-0.4,0.9-0.8,1.4-1
		c0.5-0.2,1.1-0.3,1.7-0.3c0.5,0,0.9,0.1,1.2,0.2c0.4,0.1,0.6,0.4,0.9,0.6c0.2,0.3,0.4,0.6,0.5,1c0.1,0.4,0.2,0.8,0.2,1.2V76.6z
		 M380.3,75.7c0.3,0,0.5,0,0.7-0.1s0.4-0.1,0.6-0.2c0.2-0.1,0.4-0.2,0.5-0.3c0.2-0.1,0.3-0.3,0.5-0.5v-1.7c-0.7,0-1.2,0-1.7,0.1
		c-0.5,0.1-0.8,0.2-1.1,0.3c-0.3,0.1-0.5,0.3-0.6,0.5c-0.1,0.2-0.2,0.4-0.2,0.6c0,0.2,0,0.4,0.1,0.6c0.1,0.2,0.2,0.3,0.3,0.4
		c0.1,0.1,0.3,0.2,0.4,0.2S380.1,75.7,380.3,75.7z"/>
	<path class="st2" d="M388.9,68.3c0.4,0,0.7,0,1,0.1s0.6,0.2,0.8,0.3h2.2v0.5c0,0.2-0.1,0.3-0.3,0.3l-0.9,0.1
		c0.2,0.3,0.3,0.7,0.3,1.2c0,0.4-0.1,0.8-0.2,1.1c-0.2,0.3-0.4,0.6-0.6,0.8c-0.3,0.2-0.6,0.4-1,0.5c-0.4,0.1-0.8,0.2-1.2,0.2
		c-0.4,0-0.7,0-1.1-0.1c-0.2,0.1-0.3,0.2-0.4,0.4c-0.1,0.1-0.1,0.3-0.1,0.4c0,0.2,0.1,0.3,0.2,0.5c0.2,0.1,0.4,0.2,0.6,0.2
		c0.3,0,0.5,0.1,0.9,0.1s0.7,0,1,0s0.7,0,1,0.1s0.6,0.2,0.9,0.3s0.5,0.3,0.6,0.6c0.2,0.2,0.2,0.5,0.2,0.9c0,0.4-0.1,0.7-0.3,1
		c-0.2,0.3-0.4,0.6-0.7,0.9c-0.3,0.3-0.7,0.5-1.2,0.6c-0.5,0.2-1,0.2-1.6,0.2c-0.6,0-1.1-0.1-1.6-0.2c-0.4-0.1-0.8-0.3-1.1-0.5
		c-0.3-0.2-0.5-0.4-0.7-0.7c-0.1-0.3-0.2-0.5-0.2-0.8c0-0.4,0.1-0.7,0.4-1c0.3-0.3,0.6-0.5,1-0.7c-0.2-0.1-0.4-0.2-0.5-0.4
		c-0.1-0.2-0.2-0.4-0.2-0.7c0-0.1,0-0.2,0.1-0.4c0-0.1,0.1-0.2,0.2-0.4s0.2-0.2,0.3-0.4c0.1-0.1,0.3-0.2,0.4-0.3
		c-0.4-0.2-0.7-0.5-0.9-0.9c-0.2-0.4-0.3-0.8-0.3-1.3c0-0.4,0.1-0.8,0.2-1.1c0.2-0.3,0.4-0.6,0.6-0.8c0.3-0.2,0.6-0.4,1-0.5
		C388,68.4,388.4,68.3,388.9,68.3z M391.4,77c0-0.2-0.1-0.4-0.2-0.5c-0.1-0.1-0.3-0.2-0.5-0.3c-0.2-0.1-0.4-0.1-0.7-0.2
		c-0.3,0-0.5,0-0.8,0s-0.6,0-0.8,0s-0.6,0-0.8-0.1c-0.3,0.1-0.6,0.3-0.7,0.5s-0.3,0.5-0.3,0.7c0,0.2,0,0.4,0.1,0.5
		c0.1,0.2,0.2,0.3,0.4,0.4c0.2,0.1,0.4,0.2,0.7,0.3c0.3,0.1,0.6,0.1,1,0.1c0.4,0,0.7,0,1-0.1c0.3-0.1,0.6-0.2,0.8-0.3
		c0.2-0.1,0.4-0.3,0.5-0.5S391.4,77.2,391.4,77z M388.9,72.6c0.3,0,0.5,0,0.8-0.1c0.2-0.1,0.4-0.2,0.6-0.3s0.3-0.3,0.3-0.5
		c0.1-0.2,0.1-0.4,0.1-0.7c0-0.5-0.2-0.9-0.5-1.2c-0.3-0.3-0.7-0.4-1.3-0.4c-0.6,0-1,0.1-1.3,0.4c-0.3,0.3-0.5,0.7-0.5,1.2
		c0,0.2,0,0.5,0.1,0.7c0.1,0.2,0.2,0.4,0.3,0.5s0.3,0.3,0.6,0.3S388.6,72.6,388.9,72.6z"/>
	<path class="st2" d="M397.5,68.3c0.5,0,0.9,0.1,1.3,0.2c0.4,0.2,0.8,0.4,1.1,0.7c0.3,0.3,0.5,0.7,0.7,1.1c0.2,0.5,0.3,1,0.3,1.5
		c0,0.2,0,0.4-0.1,0.4c0,0.1-0.1,0.1-0.3,0.1h-5.4c0,0.5,0.1,1,0.2,1.3s0.3,0.7,0.5,0.9c0.2,0.3,0.5,0.4,0.8,0.6
		c0.3,0.1,0.7,0.2,1,0.2c0.4,0,0.7,0,0.9-0.1s0.5-0.2,0.7-0.3c0.2-0.1,0.3-0.2,0.5-0.3s0.2-0.1,0.3-0.1c0.1,0,0.2,0,0.3,0.1l0.4,0.5
		c-0.2,0.2-0.4,0.4-0.6,0.6c-0.2,0.2-0.5,0.3-0.8,0.4c-0.3,0.1-0.6,0.2-0.9,0.2s-0.6,0.1-0.9,0.1c-0.6,0-1.1-0.1-1.5-0.3
		c-0.5-0.2-0.9-0.5-1.2-0.8s-0.6-0.8-0.8-1.4c-0.2-0.5-0.3-1.2-0.3-1.9c0-0.6,0.1-1.1,0.3-1.6c0.2-0.5,0.4-0.9,0.7-1.3
		c0.3-0.4,0.7-0.6,1.2-0.8C396.4,68.4,397,68.3,397.5,68.3z M397.6,69.4c-0.7,0-1.2,0.2-1.6,0.6c-0.4,0.4-0.6,0.9-0.7,1.7h4.4
		c0-0.3,0-0.6-0.1-0.9c-0.1-0.3-0.2-0.5-0.4-0.7c-0.2-0.2-0.4-0.4-0.6-0.5C398.2,69.4,397.9,69.4,397.6,69.4z"/>
</g>
<line class="st6" x1="60" y1="32" x2="45" y2="32"/>
<line class="st5" x1="45" y1="92" x2="60" y2="92"/>
<line class="st5" x1="45" y1="35" x2="60" y2="35"/>
<path class="st2" d="M65.1,19.5c0,0.6,0,1.2,0.1,1.7l0.2,1.8c0.1,0.6,0.1,1.2,0.2,1.7c0.1,0.6,0.1,1.2,0.1,1.8
	c0,0.7-0.1,1.5-0.2,2.2c-0.1,0.6-0.3,1.2-0.7,1.8c-0.3,0.5-0.6,0.9-1.1,1.2c-0.5,0.3-1,0.4-1.5,0.4h-0.6v-1.4c0-0.2,0-0.4,0.2-0.5
	c0.1-0.1,0.2-0.1,0.3-0.2h0.2c0.6,0,1.1-0.4,1.3-0.9c0.4-0.7,0.5-1.6,0.5-2.4c0-0.7,0-1.3-0.1-1.9s-0.1-1.2-0.2-1.8
	s-0.1-1.2-0.2-1.7s-0.1-1.2-0.1-1.7c0-0.4,0-0.8,0.1-1.2c0.1-0.3,0.2-0.7,0.3-1c0.1-0.3,0.3-0.5,0.5-0.8c0.2-0.2,0.4-0.4,0.6-0.5
	c-0.2-0.1-0.5-0.3-0.6-0.5c-0.2-0.2-0.4-0.5-0.5-0.8c-0.1-0.3-0.3-0.7-0.3-1c-0.1-0.4-0.1-0.8-0.1-1.2c0-0.6,0-1.2,0.1-1.7
	s0.1-1.1,0.2-1.7s0.1-1.2,0.2-1.8S64,6.1,64,5.5c0-0.8-0.1-1.6-0.5-2.4c-0.2-0.5-0.7-0.9-1.3-0.9H62c-0.1,0-0.2-0.1-0.3-0.2
	c-0.1-0.1-0.2-0.3-0.2-0.5V0.1h0.6c0.5,0,1.1,0.1,1.5,0.4c0.4,0.3,0.8,0.7,1.1,1.1c0.3,0.5,0.5,1.1,0.7,1.8c0.2,0.7,0.2,1.5,0.2,2.2
	c0,0.6,0,1.2-0.1,1.8c-0.1,0.6-0.1,1.2-0.2,1.7l-0.2,1.7c-0.1,0.6-0.1,1.2-0.1,1.7c0,0.6,0.1,1.3,0.4,1.8c0.2,0.4,0.6,0.7,1.1,0.7
	V17c-0.5,0-0.9,0.3-1.1,0.7C65.2,18.3,65.1,18.9,65.1,19.5z"/>
<path class="st2" d="M65.1,70.5c0,1,0,2,0.1,3s0.1,2,0.1,3s0.1,2,0.1,3s0.1,2,0.1,3.1c0,1.4,0,2.7-0.1,3.8c-0.1,1-0.2,2-0.4,3
	c-0.1,0.7-0.3,1.4-0.7,2c-0.3,0.5-0.6,0.7-0.9,0.7H63v-2.4c0-0.3,0-0.6,0.1-0.9c0.1-0.2,0.1-0.3,0.2-0.3h0.1c0.3,0,0.6-0.5,0.8-1.5
	c0.2-1.4,0.3-2.7,0.3-4.1c0-1.1,0-2.2,0-3.3s-0.1-2.1-0.1-3s-0.1-2-0.1-3s0-2,0-3c0-0.7,0-1.4,0.1-2.1s0.1-1.2,0.2-1.7
	c0.1-0.5,0.2-0.9,0.3-1.3c0.1-0.3,0.2-0.6,0.4-0.8c-0.2-0.3-0.3-0.5-0.4-0.8c-0.1-0.4-0.2-0.9-0.3-1.3c-0.1-0.5-0.2-1.1-0.2-1.8
	s-0.1-1.4-0.1-2.1c0-1,0-2,0-3s0.1-2,0.1-3s0.1-2,0.1-3s0-2.1,0-3.3c0-1.4-0.1-2.8-0.3-4.1c-0.2-1-0.5-1.5-0.8-1.5h-0.1
	c-0.1,0-0.1-0.1-0.2-0.3C63,40.2,63,39.9,63,39.6v-2.5h0.3c0.4,0,0.8,0.3,0.9,0.7c0.3,0.6,0.5,1.3,0.7,2c0.2,1,0.3,2,0.4,3
	c0.1,1.2,0.1,2.4,0.1,3.8c0,1,0,2.1-0.1,3.1s-0.1,2-0.1,3s-0.1,2-0.1,2.9s-0.1,2-0.1,3c0,1,0.1,2.1,0.2,3.1c0.2,0.8,0.4,1.2,0.7,1.2
	v3.2c-0.3,0-0.5,0.4-0.7,1.2C65.2,68.5,65.1,69.5,65.1,70.5z"/>
<path class="st2" d="M65,115.6c0,0.7,0,1.3,0.1,2s0.1,1.3,0.1,2s0.1,1.3,0.2,2s0.1,1.4,0.1,2.1c0,0.9-0.1,1.7-0.2,2.6
	c-0.1,0.7-0.3,1.4-0.5,2c-0.2,0.5-0.5,0.9-0.8,1.3c-0.3,0.3-0.7,0.5-1.2,0.5h-0.4v-1.6c0-0.2,0-0.4,0.1-0.6c0.1-0.1,0.1-0.2,0.2-0.2
	h0.2c0.4,0,0.7-0.3,1-1c0.3-0.9,0.4-1.8,0.3-2.8c0-0.8,0-1.5-0.1-2.2s-0.1-1.4-0.1-2s-0.1-1.3-0.1-2s-0.1-1.3-0.1-2
	c0-0.5,0-0.9,0.1-1.4c0.1-0.4,0.1-0.8,0.3-1.2c0.1-0.3,0.2-0.6,0.4-0.9c0.1-0.2,0.3-0.4,0.5-0.6c-0.2-0.1-0.4-0.3-0.5-0.6
	c-0.2-0.3-0.3-0.6-0.4-0.9c-0.1-0.4-0.2-0.8-0.3-1.2c-0.1-0.5-0.1-1-0.1-1.4c0-0.7,0-1.3,0.1-2s0.1-1.3,0.1-2s0.1-1.3,0.1-2
	s0.1-1.4,0.1-2.2c0-0.9-0.1-1.9-0.3-2.8c-0.2-0.7-0.6-1-1-1h-0.2c-0.1,0-0.1-0.1-0.2-0.2c-0.1-0.2-0.1-0.4-0.1-0.6v-1.6h0.4
	c0.4,0,0.9,0.2,1.2,0.5c0.4,0.4,0.6,0.8,0.8,1.3c0.2,0.6,0.4,1.3,0.5,2c0.1,0.9,0.2,1.7,0.2,2.6c0,0.7,0,1.4-0.1,2.1
	c0,0.7-0.1,1.3-0.2,2s-0.1,1.3-0.1,2s-0.1,1.3-0.1,2c0,0.7,0.1,1.4,0.3,2.1c0.2,0.5,0.5,0.8,0.8,0.8v2.2c-0.4,0-0.6,0.3-0.8,0.8
	C65.1,114.2,65,114.9,65,115.6z"/>
</svg>
