<svg id="Layer_1" data-name="Layer 1" xmlns="http://www.w3.org/2000/svg" viewBox="0 0 401.55 130"><defs><style>.cls-1{fill:#3a3a3c;}.cls-2{font-size:16px;font-family:Lato-Regular, Lato;}.cls-10,.cls-2{fill:#adb5bd;}.cls-3{fill:#b59f3b;}.cls-4{fill:#538d4e;}.cls-5,.cls-9{fill:none;}.cls-5{stroke:#f2f2f2;stroke-miterlimit:10;stroke-width:2px;}.cls-6{letter-spacing:-0.02em;}.cls-7{letter-spacing:-0.01em;}.cls-8{letter-spacing:-0.02em;}</style></defs><title>global_key</title><rect class="cls-1" width="60" height="130"/><text x="-15" y="-17"/><text class="cls-2" transform="translate(69.54 22.56)">Global wrong letter</text><rect class="cls-3" y="47" width="60" height="20"/><rect class="cls-4" y="67" width="60" height="63"/><text class="cls-2" transform="translate(69.54 70.56)">Global wrong position</text><text class="cls-2" transform="translate(69.54 117.56)">Global correct</text><rect class="cls-4" x="226" y="24" width="60" height="106"/><line class="cls-5" x1="226" y1="72" x2="286" y2="72"/><text class="cls-2" transform="translate(297.54 31.56)">% Wins</text><text class="cls-2" transform="translate(297.54 76.56)">Global <tspan class="cls-6" x="48.98" y="0">a</tspan><tspan class="cls-7" x="56.83" y="0">v</tspan><tspan x="64.82" y="0">e</tspan><tspan class="cls-8" x="73.2" y="0">r</tspan><tspan x="79.34" y="0">age</tspan></text><line class="cls-9" x1="60" y1="32" x2="45" y2="32"/><line class="cls-5" x1="45" y1="92" x2="60" y2="92"/><line class="cls-5" x1="45" y1="35" x2="60" y2="35"/><path class="cls-10" d="M80.09,36.52a16.56,16.56,0,0,0,.09,1.73L80.36,40c.07.58.13,1.15.19,1.73a17.21,17.21,0,0,1,.08,1.77,10.19,10.19,0,0,1-.22,2.22,5.91,5.91,0,0,1-.66,1.75,3.42,3.42,0,0,1-1.08,1.15,2.87,2.87,0,0,1-1.53.41h-.56V47.6a.74.74,0,0,1,.15-.51.41.41,0,0,1,.28-.15h.21a1.44,1.44,0,0,0,1.29-.88A5.12,5.12,0,0,0,79,43.67c0-.66,0-1.29-.07-1.89s-.11-1.2-.17-1.78-.12-1.15-.17-1.72-.08-1.15-.08-1.73a5.84,5.84,0,0,1,.12-1.21,4.79,4.79,0,0,1,.33-1,3.76,3.76,0,0,1,.51-.78,2,2,0,0,1,.64-.48,1.89,1.89,0,0,1-.64-.48,3.68,3.68,0,0,1-.51-.77,4.79,4.79,0,0,1-.33-1,6,6,0,0,1-.12-1.24c0-.58,0-1.16.08-1.73s.1-1.14.17-1.72.12-1.17.17-1.77.07-1.24.07-1.89a5.15,5.15,0,0,0-.47-2.39,1.44,1.44,0,0,0-1.29-.88H77a.43.43,0,0,1-.28-.16.74.74,0,0,1-.15-.51V17.14h.56a2.86,2.86,0,0,1,1.53.4,3.29,3.29,0,0,1,1.08,1.14,5.91,5.91,0,0,1,.66,1.75,10.19,10.19,0,0,1,.22,2.22,17.41,17.41,0,0,1-.08,1.78c-.06.59-.12,1.16-.19,1.73l-.18,1.72a16.56,16.56,0,0,0-.09,1.73,3.87,3.87,0,0,0,.38,1.82,1.17,1.17,0,0,0,1.08.7V34a1.14,1.14,0,0,0-1.08.71A3.83,3.83,0,0,0,80.09,36.52Z" transform="translate(-15 -17)"/><path class="cls-10" d="M80.13,87.5c0,1,0,2,.06,3s.07,2,.11,3,.08,2,.11,3,.06,2,.06,3.06c0,1.38,0,2.66-.14,3.82a23.13,23.13,0,0,1-.41,3,7,7,0,0,1-.66,2c-.27.47-.58.71-.94.71H78v-2.41a2.63,2.63,0,0,1,.1-.87c.06-.18.11-.27.17-.27h.12c.34,0,.6-.5.8-1.51a23.19,23.19,0,0,0,.29-4.12c0-1.13,0-2.21,0-3.26s-.06-2.06-.1-3-.08-2-.11-3,0-2,0-3c0-.74,0-1.43.07-2.08s.12-1.22.21-1.74a8.63,8.63,0,0,1,.31-1.34,2.8,2.8,0,0,1,.39-.83,2.8,2.8,0,0,1-.39-.83,8.61,8.61,0,0,1-.31-1.32c-.09-.51-.16-1.1-.21-1.75s-.07-1.36-.07-2.12c0-1,0-2,0-3s.07-2,.11-3,.07-2,.1-3,0-2.13,0-3.26a23.37,23.37,0,0,0-.29-4.11c-.2-1-.46-1.52-.8-1.52h-.12c-.06,0-.11-.09-.17-.27a2.63,2.63,0,0,1-.1-.87V54.14h.35a1.13,1.13,0,0,1,.94.69,7,7,0,0,1,.66,2,23.13,23.13,0,0,1,.41,3c.09,1.17.14,2.44.14,3.82,0,1.05,0,2.07-.06,3.08s-.07,2-.11,3-.08,2-.11,2.95-.06,2-.06,3a17.58,17.58,0,0,0,.23,3.13c.15.8.38,1.2.67,1.2v3.23c-.29,0-.52.4-.67,1.22A17.57,17.57,0,0,0,80.13,87.5Z" transform="translate(-15 -17)"/><path class="cls-10" d="M80,132.56c0,.67,0,1.34.06,2s.09,1.32.14,2,.1,1.34.15,2,.06,1.36.06,2.06a18.58,18.58,0,0,1-.17,2.57,9.17,9.17,0,0,1-.5,2,3.51,3.51,0,0,1-.82,1.32,1.62,1.62,0,0,1-1.16.48h-.43v-1.62a1.13,1.13,0,0,1,.12-.59q.1-.18.21-.18h.16c.41,0,.74-.33,1-1a8.85,8.85,0,0,0,.35-2.77c0-.76,0-1.48-.05-2.19s-.08-1.38-.13-2-.09-1.33-.13-2-.06-1.33-.06-2a10.19,10.19,0,0,1,.09-1.4,7.24,7.24,0,0,1,.26-1.17,4.2,4.2,0,0,1,.38-.9,1.72,1.72,0,0,1,.49-.56,1.72,1.72,0,0,1-.49-.56,3.9,3.9,0,0,1-.38-.89,6.79,6.79,0,0,1-.26-1.17,10.54,10.54,0,0,1-.09-1.43c0-.67,0-1.34.06-2s.08-1.32.13-2,.09-1.35.13-2,.05-1.43.05-2.19a8.87,8.87,0,0,0-.35-2.76c-.24-.68-.57-1-1-1h-.16q-.1,0-.21-.18a1.13,1.13,0,0,1-.12-.59v-1.6h.43a1.65,1.65,0,0,1,1.16.47,3.47,3.47,0,0,1,.82,1.31,9.17,9.17,0,0,1,.5,2,18.58,18.58,0,0,1,.17,2.57q0,1-.06,2.07c0,.67-.09,1.34-.15,2s-.09,1.32-.14,2-.06,1.33-.06,2a6.49,6.49,0,0,0,.28,2.11c.19.54.46.81.82.81v2.16c-.36,0-.63.28-.82.82A6.55,6.55,0,0,0,80,132.56Z" transform="translate(-15 -17)"/></svg>